<?xml version="1.0" encoding="UTF-8" standalone="no"?>
<!DOCTYPE svg PUBLIC "-//W3C//DTD SVG 1.1//EN"
 "http://www.w3.org/Graphics/SVG/1.1/DTD/svg11.dtd">
<!-- Generated by graphviz version 2.43.0 (0)
 -->
<!-- Title: pastafarianism Pages: 1 -->
<svg width="664pt" height="529pt"
 viewBox="0.00 0.00 664.45 529.00" xmlns="http://www.w3.org/2000/svg" xmlns:xlink="http://www.w3.org/1999/xlink">
<g id="graph0" class="graph" transform="scale(1 1) rotate(0) translate(4 525)">
<title>pastafarianism</title>
<polygon fill="white" stroke="transparent" points="-4,4 -4,-525 660.45,-525 660.45,4 -4,4"/>
<!-- Sequence -->
<g id="node1" class="node">
<title>Sequence</title>
<polygon fill="orange" stroke="black" points="405.24,-521 343.24,-521 343.24,-485 405.24,-485 405.24,-521"/>
<text text-anchor="middle" x="374.24" y="-500.8" font-family="Times,serif" font-size="9.00">Sequence</text>
</g>
<!-- Fallback -->
<g id="node2" class="node">
<title>Fallback</title>
<polygon fill="cyan" stroke="black" points="303.23,-423.54 303.23,-438.46 282.73,-449 253.74,-449 233.24,-438.46 233.24,-423.54 253.74,-413 282.73,-413 303.23,-423.54"/>
<text text-anchor="middle" x="268.24" y="-428.8" font-family="Times,serif" font-size="9.00">Fallback</text>
</g>
<!-- Sequence&#45;&gt;Fallback -->
<g id="edge1" class="edge">
<title>Sequence&#45;&gt;Fallback</title>
<path fill="none" stroke="black" d="M348.3,-484.88C333,-474.77 313.57,-461.94 297.69,-451.45"/>
<polygon fill="black" stroke="black" points="299.55,-448.49 289.28,-445.9 295.69,-454.33 299.55,-448.49"/>
</g>
<!-- in_gripper none -->
<g id="node13" class="node">
<title>in_gripper none</title>
<ellipse fill="lightgray" stroke="black" cx="374.24" cy="-431" rx="52.58" ry="18"/>
<text text-anchor="middle" x="374.24" y="-428.8" font-family="Times,serif" font-size="9.00">in_gripper none</text>
</g>
<!-- Sequence&#45;&gt;in_gripper none -->
<g id="edge12" class="edge">
<title>Sequence&#45;&gt;in_gripper none</title>
<path fill="none" stroke="black" d="M374.24,-484.7C374.24,-476.98 374.24,-467.71 374.24,-459.11"/>
<polygon fill="black" stroke="black" points="377.74,-459.1 374.24,-449.1 370.74,-459.1 377.74,-459.1"/>
</g>
<!-- gripper_state open  -->
<g id="node14" class="node">
<title>gripper_state open </title>
<ellipse fill="lightgray" stroke="black" cx="506.24" cy="-431" rx="61.55" ry="18"/>
<text text-anchor="middle" x="506.24" y="-428.8" font-family="Times,serif" font-size="9.00">gripper_state open </text>
</g>
<!-- Sequence&#45;&gt;gripper_state open  -->
<g id="edge13" class="edge">
<title>Sequence&#45;&gt;gripper_state open </title>
<path fill="none" stroke="black" d="M405.52,-485.41C424.56,-475.31 448.99,-462.36 469.02,-451.74"/>
<polygon fill="black" stroke="black" points="470.68,-454.82 477.88,-447.04 467.4,-448.63 470.68,-454.82"/>
</g>
<!-- object_roughly_at banana 0.023 0.003 0.056 0.071 bowl -->
<g id="node3" class="node">
<title>object_roughly_at banana 0.023 0.003 0.056 0.071 bowl</title>
<ellipse fill="lightgray" stroke="black" cx="162.24" cy="-359" rx="162.47" ry="18"/>
<text text-anchor="middle" x="162.24" y="-356.8" font-family="Times,serif" font-size="9.00">object_roughly_at banana 0.023 0.003 0.056 0.071 bowl</text>
</g>
<!-- Fallback&#45;&gt;object_roughly_at banana 0.023 0.003 0.056 0.071 bowl -->
<g id="edge2" class="edge">
<title>Fallback&#45;&gt;object_roughly_at banana 0.023 0.003 0.056 0.071 bowl</title>
<path fill="none" stroke="black" d="M247.29,-416.17C232.8,-406.6 213.2,-393.65 196.46,-382.6"/>
<polygon fill="black" stroke="black" points="198.28,-379.61 188.01,-377.02 194.42,-385.45 198.28,-379.61"/>
</g>
<!-- Sequence  -->
<g id="node4" class="node">
<title>Sequence </title>
<polygon fill="orange" stroke="black" points="407.74,-377 342.74,-377 342.74,-341 407.74,-341 407.74,-377"/>
<text text-anchor="middle" x="375.24" y="-356.8" font-family="Times,serif" font-size="9.00">Sequence </text>
</g>
<!-- Fallback&#45;&gt;Sequence  -->
<g id="edge3" class="edge">
<title>Fallback&#45;&gt;Sequence </title>
<path fill="none" stroke="black" d="M289.38,-416.17C304,-406.6 323.79,-393.65 340.69,-382.6"/>
<polygon fill="black" stroke="black" points="342.77,-385.42 349.22,-377.02 338.94,-379.56 342.77,-385.42"/>
</g>
<!-- /scene_clear -->
<g id="node15" class="node">
<title>/scene_clear</title>
<polygon fill="white" stroke="blue" points="248.24,-17 174.24,-17 174.24,0 248.24,0 248.24,-17"/>
<text text-anchor="middle" x="211.24" y="-6.6" font-family="Times,serif" font-size="8.00" fill="blue">/scene_clear: &#45;</text>
</g>
<!-- object_roughly_at banana 0.023 0.003 0.056 0.071 bowl&#45;&gt;/scene_clear -->
<g id="edge16" class="edge">
<title>object_roughly_at banana 0.023 0.003 0.056 0.071 bowl&#45;&gt;/scene_clear</title>
<path fill="none" stroke="blue" d="M161.32,-340.62C160.1,-316.48 158,-271.43 157.24,-233 156.92,-217 155,-212.84 157.24,-197 166.34,-132.51 192.23,-59.13 204.55,-26.59"/>
<polygon fill="blue" stroke="blue" points="207.84,-27.78 208.17,-17.19 201.31,-25.26 207.84,-27.78"/>
</g>
<!-- /target -->
<g id="node16" class="node">
<title>/target</title>
<polygon fill="white" stroke="blue" points="451.24,-17 399.24,-17 399.24,0 451.24,0 451.24,-17"/>
<text text-anchor="middle" x="425.24" y="-6.6" font-family="Times,serif" font-size="8.00" fill="blue">/target: &#45;</text>
</g>
<!-- object_roughly_at banana 0.023 0.003 0.056 0.071 bowl&#45;&gt;/target -->
<g id="edge19" class="edge">
<title>object_roughly_at banana 0.023 0.003 0.056 0.071 bowl&#45;&gt;/target</title>
<path fill="none" stroke="blue" d="M166.32,-340.79C181.02,-279.41 231.55,-73.79 253.24,-53 289.72,-18.03 350.09,-10.02 388.74,-8.77"/>
<polygon fill="blue" stroke="blue" points="389.1,-12.26 399.03,-8.58 388.97,-5.27 389.1,-12.26"/>
</g>
<!-- Fallback  -->
<g id="node5" class="node">
<title>Fallback </title>
<polygon fill="cyan" stroke="black" points="373.98,-279.54 373.98,-294.46 352.45,-305 322.02,-305 300.49,-294.46 300.49,-279.54 322.02,-269 352.45,-269 373.98,-279.54"/>
<text text-anchor="middle" x="337.24" y="-284.8" font-family="Times,serif" font-size="9.00">Fallback </text>
</g>
<!-- Sequence &#45;&gt;Fallback  -->
<g id="edge4" class="edge">
<title>Sequence &#45;&gt;Fallback </title>
<path fill="none" stroke="black" d="M365.84,-340.7C361.47,-332.64 356.18,-322.89 351.34,-313.98"/>
<polygon fill="black" stroke="black" points="354.37,-312.22 346.52,-305.1 348.22,-315.56 354.37,-312.22"/>
</g>
<!-- place0 banana 0.023 0.003 0.056 0.071 bowl -->
<g id="node12" class="node">
<title>place0 banana 0.023 0.003 0.056 0.071 bowl</title>
<ellipse fill="lightgray" stroke="black" cx="524.24" cy="-287" rx="132.43" ry="18"/>
<text text-anchor="middle" x="524.24" y="-284.8" font-family="Times,serif" font-size="9.00">place0 banana 0.023 0.003 0.056 0.071 bowl</text>
</g>
<!-- Sequence &#45;&gt;place0 banana 0.023 0.003 0.056 0.071 bowl -->
<g id="edge11" class="edge">
<title>Sequence &#45;&gt;place0 banana 0.023 0.003 0.056 0.071 bowl</title>
<path fill="none" stroke="black" d="M407.93,-342.64C429.09,-332.7 456.9,-319.64 480.02,-308.77"/>
<polygon fill="black" stroke="black" points="481.71,-311.84 489.28,-304.42 478.74,-305.51 481.71,-311.84"/>
</g>
<!-- in_gripper banana -->
<g id="node6" class="node">
<title>in_gripper banana</title>
<ellipse fill="lightgray" stroke="black" cx="300.24" cy="-215" rx="58.78" ry="18"/>
<text text-anchor="middle" x="300.24" y="-212.8" font-family="Times,serif" font-size="9.00">in_gripper banana</text>
</g>
<!-- Fallback &#45;&gt;in_gripper banana -->
<g id="edge5" class="edge">
<title>Fallback &#45;&gt;in_gripper banana</title>
<path fill="none" stroke="black" d="M328.09,-268.7C323.83,-260.64 318.68,-250.89 313.97,-241.98"/>
<polygon fill="black" stroke="black" points="317.04,-240.31 309.28,-233.1 310.86,-243.58 317.04,-240.31"/>
</g>
<!-- Sequence &#160; -->
<g id="node7" class="node">
<title>Sequence &#160;</title>
<polygon fill="orange" stroke="black" points="445.24,-233 377.24,-233 377.24,-197 445.24,-197 445.24,-233"/>
<text text-anchor="middle" x="411.24" y="-212.8" font-family="Times,serif" font-size="9.00">Sequence &#160;</text>
</g>
<!-- Fallback &#45;&gt;Sequence &#160; -->
<g id="edge6" class="edge">
<title>Fallback &#45;&gt;Sequence &#160;</title>
<path fill="none" stroke="black" d="M354.4,-269.76C363.74,-260.92 375.49,-249.82 385.87,-240"/>
<polygon fill="black" stroke="black" points="388.27,-242.54 393.13,-233.12 383.46,-237.45 388.27,-242.54"/>
</g>
<!-- Fallback &#160; -->
<g id="node8" class="node">
<title>Fallback &#160;</title>
<polygon fill="cyan" stroke="black" points="367.23,-135.54 367.23,-150.46 344.39,-161 312.08,-161 289.24,-150.46 289.24,-135.54 312.08,-125 344.39,-125 367.23,-135.54"/>
<text text-anchor="middle" x="328.24" y="-140.8" font-family="Times,serif" font-size="9.00">Fallback &#160;</text>
</g>
<!-- Sequence &#160;&#45;&gt;Fallback &#160; -->
<g id="edge7" class="edge">
<title>Sequence &#160;&#45;&gt;Fallback &#160;</title>
<path fill="none" stroke="black" d="M390.72,-196.7C379.88,-187.55 366.44,-176.22 354.81,-166.41"/>
<polygon fill="black" stroke="black" points="357,-163.68 347.1,-159.91 352.48,-169.03 357,-163.68"/>
</g>
<!-- pick0 banana -->
<g id="node11" class="node">
<title>pick0 banana</title>
<ellipse fill="lightgray" stroke="black" cx="430.24" cy="-143" rx="45.72" ry="18"/>
<text text-anchor="middle" x="430.24" y="-140.8" font-family="Times,serif" font-size="9.00">pick0 banana</text>
</g>
<!-- Sequence &#160;&#45;&gt;pick0 banana -->
<g id="edge10" class="edge">
<title>Sequence &#160;&#45;&gt;pick0 banana</title>
<path fill="none" stroke="black" d="M415.93,-196.7C418.05,-188.9 420.6,-179.51 422.95,-170.83"/>
<polygon fill="black" stroke="black" points="426.35,-171.67 425.59,-161.1 419.6,-169.84 426.35,-171.67"/>
</g>
<!-- gripper_state open -->
<g id="node9" class="node">
<title>gripper_state open</title>
<ellipse fill="lightgray" stroke="black" cx="322.24" cy="-71" rx="60.09" ry="18"/>
<text text-anchor="middle" x="322.24" y="-68.8" font-family="Times,serif" font-size="9.00">gripper_state open</text>
</g>
<!-- Fallback &#160;&#45;&gt;gripper_state open -->
<g id="edge8" class="edge">
<title>Fallback &#160;&#45;&gt;gripper_state open</title>
<path fill="none" stroke="black" d="M326.75,-124.7C326.09,-116.98 325.3,-107.71 324.56,-99.11"/>
<polygon fill="black" stroke="black" points="328.04,-98.77 323.7,-89.1 321.07,-99.37 328.04,-98.77"/>
</g>
<!-- open_gripper -->
<g id="node10" class="node">
<title>open_gripper</title>
<ellipse fill="lightgray" stroke="black" cx="446.24" cy="-71" rx="45.72" ry="18"/>
<text text-anchor="middle" x="446.24" y="-68.8" font-family="Times,serif" font-size="9.00">open_gripper</text>
</g>
<!-- Fallback &#160;&#45;&gt;open_gripper -->
<g id="edge9" class="edge">
<title>Fallback &#160;&#45;&gt;open_gripper</title>
<path fill="none" stroke="black" d="M351.55,-128.17C369.14,-117.74 393.51,-103.28 413.12,-91.65"/>
<polygon fill="black" stroke="black" points="414.94,-94.64 421.75,-86.52 411.37,-88.62 414.94,-94.64"/>
</g>
<!-- pick0 banana&#45;&gt;/scene_clear -->
<g id="edge14" class="edge">
<title>pick0 banana&#45;&gt;/scene_clear</title>
<path fill="none" stroke="blue" d="M458.75,-128.91C474.38,-120.06 492.34,-106.74 501.24,-89 508.41,-74.7 511.68,-65.12 501.24,-53 470.52,-17.33 332.88,-10.5 258.8,-9.45"/>
<polygon fill="blue" stroke="blue" points="258.39,-5.94 248.36,-9.33 258.32,-12.94 258.39,-5.94"/>
</g>
<!-- pick0 banana&#45;&gt;/target -->
<g id="edge17" class="edge">
<title>pick0 banana&#45;&gt;/target</title>
<path fill="none" stroke="blue" d="M468.65,-133.22C492.01,-125.69 519.99,-112.24 534.24,-89 542.59,-75.36 543.21,-66.25 534.24,-53 518.06,-29.13 486.47,-18.36 461.44,-13.5"/>
<polygon fill="blue" stroke="blue" points="461.97,-10.04 451.52,-11.81 460.79,-16.94 461.97,-10.04"/>
</g>
<!-- place0 banana 0.023 0.003 0.056 0.071 bowl&#45;&gt;/scene_clear -->
<g id="edge15" class="edge">
<title>place0 banana 0.023 0.003 0.056 0.071 bowl&#45;&gt;/scene_clear</title>
<path fill="none" stroke="blue" d="M530.29,-269.01C544.21,-226.54 573.29,-114.78 518.24,-53 501.21,-33.9 340.15,-19.18 258.38,-12.86"/>
<polygon fill="blue" stroke="blue" points="258.58,-9.37 248.35,-12.1 258.05,-16.35 258.58,-9.37"/>
</g>
<!-- place0 banana 0.023 0.003 0.056 0.071 bowl&#45;&gt;/target -->
<g id="edge18" class="edge">
<title>place0 banana 0.023 0.003 0.056 0.071 bowl&#45;&gt;/target</title>
<path fill="none" stroke="blue" d="M540.76,-269C578.66,-227.92 664.59,-121.61 610.24,-53 592.06,-30.05 510.17,-18.01 461.64,-12.79"/>
<polygon fill="blue" stroke="blue" points="461.84,-9.29 451.54,-11.75 461.13,-16.25 461.84,-9.29"/>
</g>
</g>
</svg>
