<?xml version="1.0" encoding="UTF-8" standalone="no"?>
<!DOCTYPE svg PUBLIC "-//W3C//DTD SVG 1.1//EN"
 "http://www.w3.org/Graphics/SVG/1.1/DTD/svg11.dtd">
<!-- Generated by graphviz version 2.43.0 (0)
 -->
<!-- Title: pastafarianism Pages: 1 -->
<svg width="451pt" height="476pt"
 viewBox="0.00 0.00 450.87 476.00" xmlns="http://www.w3.org/2000/svg" xmlns:xlink="http://www.w3.org/1999/xlink">
<g id="graph0" class="graph" transform="scale(1 1) rotate(0) translate(4 472)">
<title>pastafarianism</title>
<polygon fill="white" stroke="transparent" points="-4,4 -4,-472 446.87,-472 446.87,4 -4,4"/>
<!-- Sequence -->
<g id="node1" class="node">
<title>Sequence</title>
<polygon fill="orange" stroke="black" points="301.22,-468 239.22,-468 239.22,-432 301.22,-432 301.22,-468"/>
<text text-anchor="middle" x="270.22" y="-447.8" font-family="Times,serif" font-size="9.00">Sequence</text>
</g>
<!-- Fallback -->
<g id="node2" class="node">
<title>Fallback</title>
<polygon fill="cyan" stroke="black" points="197.21,-370.54 197.21,-385.46 176.72,-396 147.73,-396 127.23,-385.46 127.23,-370.54 147.73,-360 176.72,-360 197.21,-370.54"/>
<text text-anchor="middle" x="162.22" y="-375.8" font-family="Times,serif" font-size="9.00">Fallback</text>
</g>
<!-- Sequence&#45;&gt;Fallback -->
<g id="edge1" class="edge">
<title>Sequence&#45;&gt;Fallback</title>
<path fill="none" stroke="black" d="M243.8,-431.88C228.1,-421.7 208.15,-408.77 191.9,-398.24"/>
<polygon fill="black" stroke="black" points="193.61,-395.17 183.31,-392.67 189.8,-401.04 193.61,-395.17"/>
</g>
<!-- In gripper none? -->
<g id="node13" class="node">
<title>In gripper none?</title>
<ellipse fill="lightgray" stroke="black" cx="270.22" cy="-378" rx="54.7" ry="18"/>
<text text-anchor="middle" x="270.22" y="-375.8" font-family="Times,serif" font-size="9.00">In gripper none?</text>
</g>
<!-- Sequence&#45;&gt;In gripper none? -->
<g id="edge12" class="edge">
<title>Sequence&#45;&gt;In gripper none?</title>
<path fill="none" stroke="black" d="M270.22,-431.7C270.22,-423.98 270.22,-414.71 270.22,-406.11"/>
<polygon fill="black" stroke="black" points="273.72,-406.1 270.22,-396.1 266.72,-406.1 273.72,-406.1"/>
</g>
<!-- Gripper open?  -->
<g id="node14" class="node">
<title>Gripper open? </title>
<ellipse fill="lightgray" stroke="black" cx="393.22" cy="-378" rx="49.8" ry="18"/>
<text text-anchor="middle" x="393.22" y="-375.8" font-family="Times,serif" font-size="9.00">Gripper open? </text>
</g>
<!-- Sequence&#45;&gt;Gripper open?  -->
<g id="edge13" class="edge">
<title>Sequence&#45;&gt;Gripper open? </title>
<path fill="none" stroke="black" d="M300.31,-431.88C317.95,-421.83 340.31,-409.11 358.68,-398.66"/>
<polygon fill="black" stroke="black" points="360.64,-401.57 367.6,-393.58 357.18,-395.49 360.64,-401.57"/>
</g>
<!-- banana roughly at p1 in bowl? -->
<g id="node3" class="node">
<title>banana roughly at p1 in bowl?</title>
<ellipse fill="lightgray" stroke="black" cx="91.22" cy="-306" rx="91.44" ry="18"/>
<text text-anchor="middle" x="91.22" y="-303.8" font-family="Times,serif" font-size="9.00">banana roughly at p1 in bowl?</text>
</g>
<!-- Fallback&#45;&gt;banana roughly at p1 in bowl? -->
<g id="edge2" class="edge">
<title>Fallback&#45;&gt;banana roughly at p1 in bowl?</title>
<path fill="none" stroke="black" d="M145.75,-360.76C136.87,-352.01 125.74,-341.03 115.85,-331.28"/>
<polygon fill="black" stroke="black" points="118.17,-328.65 108.59,-324.12 113.25,-333.64 118.17,-328.65"/>
</g>
<!-- Sequence  -->
<g id="node4" class="node">
<title>Sequence </title>
<polygon fill="orange" stroke="black" points="265.72,-324 200.72,-324 200.72,-288 265.72,-288 265.72,-324"/>
<text text-anchor="middle" x="233.22" y="-303.8" font-family="Times,serif" font-size="9.00">Sequence </text>
</g>
<!-- Fallback&#45;&gt;Sequence  -->
<g id="edge3" class="edge">
<title>Fallback&#45;&gt;Sequence </title>
<path fill="none" stroke="black" d="M178.69,-360.76C187.57,-352.01 198.7,-341.03 208.59,-331.28"/>
<polygon fill="black" stroke="black" points="211.19,-333.64 215.85,-324.12 206.27,-328.65 211.19,-333.64"/>
</g>
<!-- Fallback  -->
<g id="node5" class="node">
<title>Fallback </title>
<polygon fill="cyan" stroke="black" points="201.96,-226.54 201.96,-241.46 180.44,-252 150,-252 128.48,-241.46 128.48,-226.54 150,-216 180.44,-216 201.96,-226.54"/>
<text text-anchor="middle" x="165.22" y="-231.8" font-family="Times,serif" font-size="9.00">Fallback </text>
</g>
<!-- Sequence &#45;&gt;Fallback  -->
<g id="edge4" class="edge">
<title>Sequence &#45;&gt;Fallback </title>
<path fill="none" stroke="black" d="M216.41,-287.7C207.97,-279.01 197.61,-268.34 188.43,-258.89"/>
<polygon fill="black" stroke="black" points="190.85,-256.36 181.37,-251.62 185.83,-261.23 190.85,-256.36"/>
</g>
<!-- Place banana at p1 in bowl -->
<g id="node12" class="node">
<title>Place banana at p1 in bowl</title>
<ellipse fill="lightgray" stroke="black" cx="302.22" cy="-234" rx="81.97" ry="18"/>
<text text-anchor="middle" x="302.22" y="-231.8" font-family="Times,serif" font-size="9.00">Place banana at p1 in bowl</text>
</g>
<!-- Sequence &#45;&gt;Place banana at p1 in bowl -->
<g id="edge11" class="edge">
<title>Sequence &#45;&gt;Place banana at p1 in bowl</title>
<path fill="none" stroke="black" d="M250.28,-287.7C258.72,-279.14 269.05,-268.66 278.26,-259.3"/>
<polygon fill="black" stroke="black" points="280.83,-261.68 285.36,-252.1 275.85,-256.77 280.83,-261.68"/>
</g>
<!-- In gripper banana? -->
<g id="node6" class="node">
<title>In gripper banana?</title>
<ellipse fill="lightgray" stroke="black" cx="109.22" cy="-162" rx="61.4" ry="18"/>
<text text-anchor="middle" x="109.22" y="-159.8" font-family="Times,serif" font-size="9.00">In gripper banana?</text>
</g>
<!-- Fallback &#45;&gt;In gripper banana? -->
<g id="edge5" class="edge">
<title>Fallback &#45;&gt;In gripper banana?</title>
<path fill="none" stroke="black" d="M151.38,-215.7C144.56,-207.18 136.23,-196.76 128.78,-187.45"/>
<polygon fill="black" stroke="black" points="131.5,-185.24 122.52,-179.62 126.03,-189.62 131.5,-185.24"/>
</g>
<!-- Sequence &#160; -->
<g id="node7" class="node">
<title>Sequence &#160;</title>
<polygon fill="orange" stroke="black" points="256.22,-180 188.22,-180 188.22,-144 256.22,-144 256.22,-180"/>
<text text-anchor="middle" x="222.22" y="-159.8" font-family="Times,serif" font-size="9.00">Sequence &#160;</text>
</g>
<!-- Fallback &#45;&gt;Sequence &#160; -->
<g id="edge6" class="edge">
<title>Fallback &#45;&gt;Sequence &#160;</title>
<path fill="none" stroke="black" d="M179.31,-215.7C186.14,-207.3 194.48,-197.07 201.98,-187.86"/>
<polygon fill="black" stroke="black" points="204.69,-190.07 208.29,-180.1 199.27,-185.65 204.69,-190.07"/>
</g>
<!-- Fallback &#160; -->
<g id="node8" class="node">
<title>Fallback &#160;</title>
<polygon fill="cyan" stroke="black" points="211.21,-82.54 211.21,-97.46 188.37,-108 156.07,-108 133.23,-97.46 133.23,-82.54 156.07,-72 188.37,-72 211.21,-82.54"/>
<text text-anchor="middle" x="172.22" y="-87.8" font-family="Times,serif" font-size="9.00">Fallback &#160;</text>
</g>
<!-- Sequence &#160;&#45;&gt;Fallback &#160; -->
<g id="edge7" class="edge">
<title>Sequence &#160;&#45;&gt;Fallback &#160;</title>
<path fill="none" stroke="black" d="M209.86,-143.7C203.99,-135.47 196.85,-125.48 190.38,-116.42"/>
<polygon fill="black" stroke="black" points="193.1,-114.21 184.44,-108.1 187.4,-118.28 193.1,-114.21"/>
</g>
<!-- Pick banana -->
<g id="node11" class="node">
<title>Pick banana</title>
<ellipse fill="lightgray" stroke="black" cx="271.22" cy="-90" rx="42.29" ry="18"/>
<text text-anchor="middle" x="271.22" y="-87.8" font-family="Times,serif" font-size="9.00">Pick banana</text>
</g>
<!-- Sequence &#160;&#45;&gt;Pick banana -->
<g id="edge10" class="edge">
<title>Sequence &#160;&#45;&gt;Pick banana</title>
<path fill="none" stroke="black" d="M234.33,-143.7C240.18,-135.35 247.29,-125.18 253.71,-116.02"/>
<polygon fill="black" stroke="black" points="256.72,-117.82 259.59,-107.62 250.98,-113.81 256.72,-117.82"/>
</g>
<!-- Gripper open? -->
<g id="node9" class="node">
<title>Gripper open?</title>
<ellipse fill="lightgray" stroke="black" cx="112.22" cy="-18" rx="47.84" ry="18"/>
<text text-anchor="middle" x="112.22" y="-15.8" font-family="Times,serif" font-size="9.00">Gripper open?</text>
</g>
<!-- Fallback &#160;&#45;&gt;Gripper open? -->
<g id="edge8" class="edge">
<title>Fallback &#160;&#45;&gt;Gripper open?</title>
<path fill="none" stroke="black" d="M157.39,-71.7C150.09,-63.18 141.16,-52.76 133.18,-43.45"/>
<polygon fill="black" stroke="black" points="135.63,-40.94 126.47,-35.62 130.32,-45.49 135.63,-40.94"/>
</g>
<!-- Set gripper open -->
<g id="node10" class="node">
<title>Set gripper open</title>
<ellipse fill="lightgray" stroke="black" cx="233.22" cy="-18" rx="54.7" ry="18"/>
<text text-anchor="middle" x="233.22" y="-15.8" font-family="Times,serif" font-size="9.00">Set gripper open</text>
</g>
<!-- Fallback &#160;&#45;&gt;Set gripper open -->
<g id="edge9" class="edge">
<title>Fallback &#160;&#45;&gt;Set gripper open</title>
<path fill="none" stroke="black" d="M187.3,-71.7C194.8,-63.09 203.98,-52.55 212.16,-43.17"/>
<polygon fill="black" stroke="black" points="214.81,-45.46 218.74,-35.62 209.53,-40.86 214.81,-45.46"/>
</g>
</g>
</svg>
