<?xml version="1.0" encoding="UTF-8" standalone="no"?>
<!DOCTYPE svg PUBLIC "-//W3C//DTD SVG 1.1//EN"
 "http://www.w3.org/Graphics/SVG/1.1/DTD/svg11.dtd">
<!-- Generated by graphviz version 2.43.0 (0)
 -->
<!-- Title: BT Pages: 1 -->
<svg width="632pt" height="469pt"
 viewBox="0.00 0.00 631.78 469.00" xmlns="http://www.w3.org/2000/svg" xmlns:xlink="http://www.w3.org/1999/xlink">
<g id="graph0" class="graph" transform="scale(1 1) rotate(0) translate(4 465)">
<title>BT</title>
<polygon fill="white" stroke="transparent" points="-4,4 -4,-465 627.78,-465 627.78,4 -4,4"/>
<!-- n1 -->
<g id="node1" class="node">
<title>n1</title>
<polygon fill="none" stroke="black" points="377.94,-461 348.94,-461 348.94,-432 377.94,-432 377.94,-461"/>
<text text-anchor="middle" x="363.44" y="-442.8" font-family="Times,serif" font-size="14.00">→</text>
</g>
<!-- n2 -->
<g id="node2" class="node">
<title>n2</title>
<polygon fill="none" stroke="black" points="257.94,-392.5 228.94,-392.5 228.94,-363.5 257.94,-363.5 257.94,-392.5"/>
<text text-anchor="middle" x="243.44" y="-374.3" font-family="Times,serif" font-size="14.00">?</text>
</g>
<!-- n1&#45;&gt;n2 -->
<g id="edge11" class="edge">
<title>n1&#45;&gt;n2</title>
<path fill="none" stroke="black" d="M348.9,-439C331.15,-430.88 300.21,-416.1 267.18,-396.03"/>
<polygon fill="black" stroke="black" points="268.63,-392.81 258.28,-390.52 264.94,-398.76 268.63,-392.81"/>
</g>
<!-- n13 -->
<g id="node13" class="node">
<title>n13</title>
<ellipse fill="none" stroke="black" cx="363.44" cy="-378" rx="87.99" ry="18"/>
<text text-anchor="middle" x="363.44" y="-374.3" font-family="Times,serif" font-size="14.00">In gripper none?</text>
</g>
<!-- n1&#45;&gt;n13 -->
<g id="edge12" class="edge">
<title>n1&#45;&gt;n13</title>
<path fill="none" stroke="black" d="M363.44,-431.72C363.44,-424.36 363.44,-415.04 363.44,-406.29"/>
<polygon fill="black" stroke="black" points="366.94,-406.07 363.44,-396.07 359.94,-406.07 366.94,-406.07"/>
</g>
<!-- n14 -->
<g id="node14" class="node">
<title>n14</title>
<ellipse fill="none" stroke="black" cx="546.44" cy="-378" rx="77.19" ry="18"/>
<text text-anchor="middle" x="546.44" y="-374.3" font-family="Times,serif" font-size="14.00">Gripper open?</text>
</g>
<!-- n1&#45;&gt;n14 -->
<g id="edge13" class="edge">
<title>n1&#45;&gt;n14</title>
<path fill="none" stroke="black" d="M378.1,-440.17C403.57,-430.92 457.05,-411.48 496.94,-396.99"/>
<polygon fill="black" stroke="black" points="498.3,-400.22 506.51,-393.51 495.91,-393.64 498.3,-400.22"/>
</g>
<!-- n3 -->
<g id="node3" class="node">
<title>n3</title>
<ellipse fill="none" stroke="black" cx="151.44" cy="-306" rx="151.37" ry="18"/>
<text text-anchor="middle" x="151.44" y="-302.3" font-family="Times,serif" font-size="14.00">banana roughly at p1 in bowl?</text>
</g>
<!-- n2&#45;&gt;n3 -->
<g id="edge1" class="edge">
<title>n2&#45;&gt;n3</title>
<path fill="none" stroke="black" d="M228.66,-365.75C216.14,-356.23 197.79,-342.27 182.12,-330.34"/>
<polygon fill="black" stroke="black" points="183.82,-327.24 173.74,-323.97 179.58,-332.81 183.82,-327.24"/>
</g>
<!-- n4 -->
<g id="node4" class="node">
<title>n4</title>
<polygon fill="none" stroke="black" points="349.94,-320.5 320.94,-320.5 320.94,-291.5 349.94,-291.5 349.94,-320.5"/>
<text text-anchor="middle" x="335.44" y="-302.3" font-family="Times,serif" font-size="14.00">→</text>
</g>
<!-- n2&#45;&gt;n4 -->
<g id="edge10" class="edge">
<title>n2&#45;&gt;n4</title>
<path fill="none" stroke="black" d="M258.22,-365.75C272.84,-354.63 295.42,-337.44 312.4,-324.53"/>
<polygon fill="black" stroke="black" points="314.85,-327.06 320.69,-318.22 310.61,-321.49 314.85,-327.06"/>
</g>
<!-- n5 -->
<g id="node5" class="node">
<title>n5</title>
<polygon fill="none" stroke="black" points="281.94,-248.5 252.94,-248.5 252.94,-219.5 281.94,-219.5 281.94,-248.5"/>
<text text-anchor="middle" x="267.44" y="-230.3" font-family="Times,serif" font-size="14.00">?</text>
</g>
<!-- n4&#45;&gt;n5 -->
<g id="edge8" class="edge">
<title>n4&#45;&gt;n5</title>
<path fill="none" stroke="black" d="M322,-291.17C312.32,-281.2 299.06,-267.56 288.04,-256.21"/>
<polygon fill="black" stroke="black" points="290.32,-253.54 280.84,-248.8 285.3,-258.41 290.32,-253.54"/>
</g>
<!-- n12 -->
<g id="node12" class="node">
<title>n12</title>
<polygon fill="none" stroke="black" points="508.94,-252 299.94,-252 299.94,-216 508.94,-216 508.94,-252"/>
<text text-anchor="middle" x="404.44" y="-230.3" font-family="Times,serif" font-size="14.00">Place banana at p1 in bowl</text>
</g>
<!-- n4&#45;&gt;n12 -->
<g id="edge9" class="edge">
<title>n4&#45;&gt;n12</title>
<path fill="none" stroke="black" d="M349.07,-291.17C357.98,-282.13 369.87,-270.07 380.35,-259.44"/>
<polygon fill="black" stroke="black" points="383.13,-261.6 387.66,-252.02 378.15,-256.68 383.13,-261.6"/>
</g>
<!-- n6 -->
<g id="node6" class="node">
<title>n6</title>
<ellipse fill="none" stroke="black" cx="202.44" cy="-162" rx="98.58" ry="18"/>
<text text-anchor="middle" x="202.44" y="-158.3" font-family="Times,serif" font-size="14.00">In gripper banana?</text>
</g>
<!-- n5&#45;&gt;n6 -->
<g id="edge2" class="edge">
<title>n5&#45;&gt;n6</title>
<path fill="none" stroke="black" d="M254.59,-219.17C246.2,-210.13 235,-198.07 225.13,-187.44"/>
<polygon fill="black" stroke="black" points="227.61,-184.97 218.24,-180.02 222.48,-189.73 227.61,-184.97"/>
</g>
<!-- n7 -->
<g id="node7" class="node">
<title>n7</title>
<polygon fill="none" stroke="black" points="347.94,-176.5 318.94,-176.5 318.94,-147.5 347.94,-147.5 347.94,-176.5"/>
<text text-anchor="middle" x="333.44" y="-158.3" font-family="Times,serif" font-size="14.00">→</text>
</g>
<!-- n5&#45;&gt;n7 -->
<g id="edge7" class="edge">
<title>n5&#45;&gt;n7</title>
<path fill="none" stroke="black" d="M280.48,-219.17C289.88,-209.2 302.74,-195.56 313.44,-184.21"/>
<polygon fill="black" stroke="black" points="316.11,-186.48 320.42,-176.8 311.02,-181.68 316.11,-186.48"/>
</g>
<!-- n8 -->
<g id="node8" class="node">
<title>n8</title>
<polygon fill="none" stroke="black" points="305.94,-104.5 276.94,-104.5 276.94,-75.5 305.94,-75.5 305.94,-104.5"/>
<text text-anchor="middle" x="291.44" y="-86.3" font-family="Times,serif" font-size="14.00">?</text>
</g>
<!-- n7&#45;&gt;n8 -->
<g id="edge5" class="edge">
<title>n7&#45;&gt;n8</title>
<path fill="none" stroke="black" d="M325.14,-147.17C319.39,-137.58 311.6,-124.6 304.96,-113.53"/>
<polygon fill="black" stroke="black" points="307.86,-111.58 299.72,-104.8 301.86,-115.18 307.86,-111.58"/>
</g>
<!-- n11 -->
<g id="node11" class="node">
<title>n11</title>
<polygon fill="none" stroke="black" points="426.94,-108 323.94,-108 323.94,-72 426.94,-72 426.94,-108"/>
<text text-anchor="middle" x="375.44" y="-86.3" font-family="Times,serif" font-size="14.00">Pick banana</text>
</g>
<!-- n7&#45;&gt;n11 -->
<g id="edge6" class="edge">
<title>n7&#45;&gt;n11</title>
<path fill="none" stroke="black" d="M341.73,-147.17C346.95,-138.48 353.84,-127 360.03,-116.68"/>
<polygon fill="black" stroke="black" points="363.08,-118.39 365.23,-108.02 357.08,-114.79 363.08,-118.39"/>
</g>
<!-- n9 -->
<g id="node9" class="node">
<title>n9</title>
<ellipse fill="none" stroke="black" cx="209.44" cy="-18" rx="77.19" ry="18"/>
<text text-anchor="middle" x="209.44" y="-14.3" font-family="Times,serif" font-size="14.00">Gripper open?</text>
</g>
<!-- n8&#45;&gt;n9 -->
<g id="edge3" class="edge">
<title>n8&#45;&gt;n9</title>
<path fill="none" stroke="black" d="M276.78,-76.49C265.71,-67.04 250.21,-53.81 236.87,-42.42"/>
<polygon fill="black" stroke="black" points="238.78,-39.45 228.9,-35.62 234.24,-44.77 238.78,-39.45"/>
</g>
<!-- n10 -->
<g id="node10" class="node">
<title>n10</title>
<polygon fill="none" stroke="black" points="441.94,-36 304.94,-36 304.94,0 441.94,0 441.94,-36"/>
<text text-anchor="middle" x="373.44" y="-14.3" font-family="Times,serif" font-size="14.00">Set gripper open</text>
</g>
<!-- n8&#45;&gt;n10 -->
<g id="edge4" class="edge">
<title>n8&#45;&gt;n10</title>
<path fill="none" stroke="black" d="M306.1,-76.49C317.01,-67.17 332.23,-54.17 345.45,-42.89"/>
<polygon fill="black" stroke="black" points="348.03,-45.29 353.36,-36.14 343.48,-39.97 348.03,-45.29"/>
</g>
</g>
</svg>
