<?xml version="1.0" encoding="UTF-8" standalone="no"?>
<!DOCTYPE svg PUBLIC "-//W3C//DTD SVG 1.1//EN"
 "http://www.w3.org/Graphics/SVG/1.1/DTD/svg11.dtd">
<!-- Generated by graphviz version 2.43.0 (0)
 -->
<!-- Title: pastafarianism Pages: 1 -->
<svg width="693pt" height="601pt"
 viewBox="0.00 0.00 692.63 601.00" xmlns="http://www.w3.org/2000/svg" xmlns:xlink="http://www.w3.org/1999/xlink">
<g id="graph0" class="graph" transform="scale(1 1) rotate(0) translate(4 597)">
<title>pastafarianism</title>
<polygon fill="white" stroke="transparent" points="-4,4 -4,-597 688.63,-597 688.63,4 -4,4"/>
<!-- Sequence -->
<g id="node1" class="node">
<title>Sequence</title>
<polygon fill="orange" stroke="black" points="364.85,-593 302.85,-593 302.85,-557 364.85,-557 364.85,-593"/>
<text text-anchor="middle" x="333.85" y="-572.8" font-family="Times,serif" font-size="9.00">Sequence</text>
</g>
<!-- Fallback -->
<g id="node2" class="node">
<title>Fallback</title>
<polygon fill="cyan" stroke="black" points="318.84,-495.54 318.84,-510.46 298.34,-521 269.36,-521 248.86,-510.46 248.86,-495.54 269.36,-485 298.34,-485 318.84,-495.54"/>
<text text-anchor="middle" x="283.85" y="-500.8" font-family="Times,serif" font-size="9.00">Fallback</text>
</g>
<!-- Sequence&#45;&gt;Fallback -->
<g id="edge1" class="edge">
<title>Sequence&#45;&gt;Fallback</title>
<path fill="none" stroke="black" d="M321.49,-556.7C315.62,-548.47 308.48,-538.48 302.01,-529.42"/>
<polygon fill="black" stroke="black" points="304.73,-527.21 296.07,-521.1 299.03,-531.28 304.73,-527.21"/>
</g>
<!-- Sequence  -->
<g id="node5" class="node">
<title>Sequence </title>
<polygon fill="orange" stroke="black" points="469.35,-521 404.35,-521 404.35,-485 469.35,-485 469.35,-521"/>
<text text-anchor="middle" x="436.85" y="-500.8" font-family="Times,serif" font-size="9.00">Sequence </text>
</g>
<!-- Sequence&#45;&gt;Sequence  -->
<g id="edge4" class="edge">
<title>Sequence&#45;&gt;Sequence </title>
<path fill="none" stroke="black" d="M359.05,-556.88C372.27,-547.89 388.64,-536.76 402.96,-527.03"/>
<polygon fill="black" stroke="black" points="405.25,-529.71 411.56,-521.19 401.32,-523.92 405.25,-529.71"/>
</g>
<!-- clear -->
<g id="node3" class="node">
<title>clear</title>
<ellipse fill="lightgray" stroke="black" cx="192.85" cy="-431" rx="27" ry="18"/>
<text text-anchor="middle" x="192.85" y="-428.8" font-family="Times,serif" font-size="9.00">clear</text>
</g>
<!-- Fallback&#45;&gt;clear -->
<g id="edge2" class="edge">
<title>Fallback&#45;&gt;clear</title>
<path fill="none" stroke="black" d="M264.55,-487.15C251.03,-476.75 232.83,-462.75 218.15,-451.46"/>
<polygon fill="black" stroke="black" points="220.03,-448.49 209.97,-445.17 215.77,-454.04 220.03,-448.49"/>
</g>
<!-- disambiguate -->
<g id="node4" class="node">
<title>disambiguate</title>
<ellipse fill="lightgray" stroke="black" cx="283.85" cy="-431" rx="45.72" ry="18"/>
<text text-anchor="middle" x="283.85" y="-428.8" font-family="Times,serif" font-size="9.00">disambiguate</text>
</g>
<!-- Fallback&#45;&gt;disambiguate -->
<g id="edge3" class="edge">
<title>Fallback&#45;&gt;disambiguate</title>
<path fill="none" stroke="black" d="M283.85,-484.7C283.85,-476.98 283.85,-467.71 283.85,-459.11"/>
<polygon fill="black" stroke="black" points="287.35,-459.1 283.85,-449.1 280.35,-459.1 287.35,-459.1"/>
</g>
<!-- /scene_clear -->
<g id="node19" class="node">
<title>/scene_clear</title>
<polygon fill="white" stroke="blue" points="118.35,-17 29.35,-17 29.35,0 118.35,0 118.35,-17"/>
<text text-anchor="middle" x="73.85" y="-6.6" font-family="Times,serif" font-size="8.00" fill="blue">/scene_clear: True</text>
</g>
<!-- clear&#45;&gt;/scene_clear -->
<g id="edge20" class="edge">
<title>clear&#45;&gt;/scene_clear</title>
<path fill="none" stroke="blue" d="M165.85,-429.87C129.2,-428.05 64.84,-418.69 34.85,-377 -45.57,-265.19 36.3,-82.49 64.84,-26.4"/>
<polygon fill="blue" stroke="blue" points="68.12,-27.68 69.63,-17.19 61.91,-24.45 68.12,-27.68"/>
</g>
<!-- disambiguate&#45;&gt;/scene_clear -->
<g id="edge21" class="edge">
<title>disambiguate&#45;&gt;/scene_clear</title>
<path fill="none" stroke="blue" d="M249.28,-419.13C242.52,-417.06 235.47,-414.93 228.85,-413 170.89,-396.08 136,-423.8 97.85,-377 53.74,-322.88 67.43,-93.61 72.4,-27.45"/>
<polygon fill="blue" stroke="blue" points="75.92,-27.31 73.21,-17.07 68.94,-26.77 75.92,-27.31"/>
</g>
<!-- Fallback  -->
<g id="node6" class="node">
<title>Fallback </title>
<polygon fill="cyan" stroke="black" points="420.59,-423.54 420.59,-438.46 399.07,-449 368.63,-449 347.11,-438.46 347.11,-423.54 368.63,-413 399.07,-413 420.59,-423.54"/>
<text text-anchor="middle" x="383.85" y="-428.8" font-family="Times,serif" font-size="9.00">Fallback </text>
</g>
<!-- Sequence &#45;&gt;Fallback  -->
<g id="edge5" class="edge">
<title>Sequence &#45;&gt;Fallback </title>
<path fill="none" stroke="black" d="M423.75,-484.7C417.46,-476.39 409.8,-466.28 402.89,-457.14"/>
<polygon fill="black" stroke="black" points="405.63,-454.96 396.8,-449.1 400.05,-459.19 405.63,-454.96"/>
</g>
<!-- in_gripper none -->
<g id="node17" class="node">
<title>in_gripper none</title>
<ellipse fill="lightgray" stroke="black" cx="490.85" cy="-431" rx="52.58" ry="18"/>
<text text-anchor="middle" x="490.85" y="-428.8" font-family="Times,serif" font-size="9.00">in_gripper none</text>
</g>
<!-- Sequence &#45;&gt;in_gripper none -->
<g id="edge16" class="edge">
<title>Sequence &#45;&gt;in_gripper none</title>
<path fill="none" stroke="black" d="M450.2,-484.7C456.7,-476.27 464.64,-465.97 471.77,-456.73"/>
<polygon fill="black" stroke="black" points="474.69,-458.68 478.03,-448.62 469.15,-454.4 474.69,-458.68"/>
</g>
<!-- gripper_state open  -->
<g id="node18" class="node">
<title>gripper_state open </title>
<ellipse fill="lightgray" stroke="black" cx="622.85" cy="-431" rx="61.55" ry="18"/>
<text text-anchor="middle" x="622.85" y="-428.8" font-family="Times,serif" font-size="9.00">gripper_state open </text>
</g>
<!-- Sequence &#45;&gt;gripper_state open  -->
<g id="edge17" class="edge">
<title>Sequence &#45;&gt;gripper_state open </title>
<path fill="none" stroke="black" d="M469.68,-489.65C499.48,-478.43 543.74,-461.77 577.03,-449.25"/>
<polygon fill="black" stroke="black" points="578.41,-452.46 586.54,-445.67 575.95,-445.91 578.41,-452.46"/>
</g>
<!-- object_roughly_at banana 0.023 0.003 0.056 0.071 bowl -->
<g id="node7" class="node">
<title>object_roughly_at banana 0.023 0.003 0.056 0.071 bowl</title>
<ellipse fill="lightgray" stroke="black" cx="276.85" cy="-359" rx="162.47" ry="18"/>
<text text-anchor="middle" x="276.85" y="-356.8" font-family="Times,serif" font-size="9.00">object_roughly_at banana 0.023 0.003 0.056 0.071 bowl</text>
</g>
<!-- Fallback &#45;&gt;object_roughly_at banana 0.023 0.003 0.056 0.071 bowl -->
<g id="edge6" class="edge">
<title>Fallback &#45;&gt;object_roughly_at banana 0.023 0.003 0.056 0.071 bowl</title>
<path fill="none" stroke="black" d="M362.46,-416C347.81,-406.42 328.07,-393.51 311.24,-382.5"/>
<polygon fill="black" stroke="black" points="313.03,-379.48 302.74,-376.94 309.2,-385.34 313.03,-379.48"/>
</g>
<!-- Sequence &#160; -->
<g id="node8" class="node">
<title>Sequence &#160;</title>
<polygon fill="orange" stroke="black" points="524.85,-377 456.85,-377 456.85,-341 524.85,-341 524.85,-377"/>
<text text-anchor="middle" x="490.85" y="-356.8" font-family="Times,serif" font-size="9.00">Sequence &#160;</text>
</g>
<!-- Fallback &#45;&gt;Sequence &#160; -->
<g id="edge7" class="edge">
<title>Fallback &#45;&gt;Sequence &#160;</title>
<path fill="none" stroke="black" d="M405.25,-416C419.79,-406.49 439.35,-393.69 456.11,-382.73"/>
<polygon fill="black" stroke="black" points="458.12,-385.6 464.57,-377.19 454.28,-379.74 458.12,-385.6"/>
</g>
<!-- object_roughly_at banana 0.023 0.003 0.056 0.071 bowl&#45;&gt;/scene_clear -->
<g id="edge22" class="edge">
<title>object_roughly_at banana 0.023 0.003 0.056 0.071 bowl&#45;&gt;/scene_clear</title>
<path fill="none" stroke="blue" d="M269.12,-340.64C241.88,-279.68 150.94,-77.71 130.85,-53 121.06,-40.96 107.29,-30.33 95.73,-22.59"/>
<polygon fill="blue" stroke="blue" points="97.37,-19.48 87.06,-17.03 93.59,-25.38 97.37,-19.48"/>
</g>
<!-- /target -->
<g id="node20" class="node">
<title>/target</title>
<polygon fill="white" stroke="blue" points="227.85,-17 175.85,-17 175.85,0 227.85,0 227.85,-17"/>
<text text-anchor="middle" x="201.85" y="-6.6" font-family="Times,serif" font-size="8.00" fill="blue">/target: &#45;</text>
</g>
<!-- object_roughly_at banana 0.023 0.003 0.056 0.071 bowl&#45;&gt;/target -->
<g id="edge26" class="edge">
<title>object_roughly_at banana 0.023 0.003 0.056 0.071 bowl&#45;&gt;/target</title>
<path fill="none" stroke="blue" d="M273.16,-340.62C268.06,-316.49 258.59,-271.46 250.85,-233 234.77,-153.1 236.15,-131.93 215.85,-53 213.6,-44.23 210.57,-34.64 207.91,-26.69"/>
<polygon fill="blue" stroke="blue" points="211.18,-25.43 204.61,-17.12 204.56,-27.71 211.18,-25.43"/>
</g>
<!-- Fallback &#160; -->
<g id="node9" class="node">
<title>Fallback &#160;</title>
<polygon fill="cyan" stroke="black" points="375.84,-279.54 375.84,-294.46 353,-305 320.7,-305 297.86,-294.46 297.86,-279.54 320.7,-269 353,-269 375.84,-279.54"/>
<text text-anchor="middle" x="336.85" y="-284.8" font-family="Times,serif" font-size="9.00">Fallback &#160;</text>
</g>
<!-- Sequence &#160;&#45;&gt;Fallback &#160; -->
<g id="edge8" class="edge">
<title>Sequence &#160;&#45;&gt;Fallback &#160;</title>
<path fill="none" stroke="black" d="M456.67,-342.46C431.84,-331.18 398.3,-315.93 373.02,-304.44"/>
<polygon fill="black" stroke="black" points="374.33,-301.19 363.78,-300.24 371.43,-307.56 374.33,-301.19"/>
</g>
<!-- place0 banana 0.023 0.003 0.056 0.071 bowl -->
<g id="node16" class="node">
<title>place0 banana 0.023 0.003 0.056 0.071 bowl</title>
<ellipse fill="lightgray" stroke="black" cx="525.85" cy="-287" rx="132.43" ry="18"/>
<text text-anchor="middle" x="525.85" y="-284.8" font-family="Times,serif" font-size="9.00">place0 banana 0.023 0.003 0.056 0.071 bowl</text>
</g>
<!-- Sequence &#160;&#45;&gt;place0 banana 0.023 0.003 0.056 0.071 bowl -->
<g id="edge15" class="edge">
<title>Sequence &#160;&#45;&gt;place0 banana 0.023 0.003 0.056 0.071 bowl</title>
<path fill="none" stroke="black" d="M499.5,-340.7C503.49,-332.73 508.3,-323.1 512.72,-314.26"/>
<polygon fill="black" stroke="black" points="515.96,-315.61 517.3,-305.1 509.7,-312.48 515.96,-315.61"/>
</g>
<!-- in_gripper banana -->
<g id="node10" class="node">
<title>in_gripper banana</title>
<ellipse fill="lightgray" stroke="black" cx="318.85" cy="-215" rx="58.78" ry="18"/>
<text text-anchor="middle" x="318.85" y="-212.8" font-family="Times,serif" font-size="9.00">in_gripper banana</text>
</g>
<!-- Fallback &#160;&#45;&gt;in_gripper banana -->
<g id="edge9" class="edge">
<title>Fallback &#160;&#45;&gt;in_gripper banana</title>
<path fill="none" stroke="black" d="M332.4,-268.7C330.4,-260.9 327.98,-251.51 325.75,-242.83"/>
<polygon fill="black" stroke="black" points="329.13,-241.92 323.25,-233.1 322.35,-243.66 329.13,-241.92"/>
</g>
<!-- Sequence &#160;&#160; -->
<g id="node11" class="node">
<title>Sequence &#160;&#160;</title>
<polygon fill="orange" stroke="black" points="466.35,-233 395.35,-233 395.35,-197 466.35,-197 466.35,-233"/>
<text text-anchor="middle" x="430.85" y="-212.8" font-family="Times,serif" font-size="9.00">Sequence &#160;&#160;</text>
</g>
<!-- Fallback &#160;&#45;&gt;Sequence &#160;&#160; -->
<g id="edge10" class="edge">
<title>Fallback &#160;&#45;&gt;Sequence &#160;&#160;</title>
<path fill="none" stroke="black" d="M357.25,-270.81C369.59,-261.62 385.58,-249.71 399.5,-239.34"/>
<polygon fill="black" stroke="black" points="401.92,-241.91 407.85,-233.13 397.74,-236.29 401.92,-241.91"/>
</g>
<!-- Fallback &#160;&#160; -->
<g id="node12" class="node">
<title>Fallback &#160;&#160;</title>
<polygon fill="cyan" stroke="black" points="376.59,-135.54 376.59,-150.46 352.73,-161 318.98,-161 295.11,-150.46 295.11,-135.54 318.98,-125 352.73,-125 376.59,-135.54"/>
<text text-anchor="middle" x="335.85" y="-140.8" font-family="Times,serif" font-size="9.00">Fallback &#160;&#160;</text>
</g>
<!-- Sequence &#160;&#160;&#45;&gt;Fallback &#160;&#160; -->
<g id="edge11" class="edge">
<title>Sequence &#160;&#160;&#45;&gt;Fallback &#160;&#160;</title>
<path fill="none" stroke="black" d="M407.37,-196.7C394.54,-187.24 378.53,-175.45 364.92,-165.42"/>
<polygon fill="black" stroke="black" points="366.93,-162.55 356.8,-159.44 362.77,-168.19 366.93,-162.55"/>
</g>
<!-- pick0 banana -->
<g id="node15" class="node">
<title>pick0 banana</title>
<ellipse fill="lightgray" stroke="black" cx="439.85" cy="-143" rx="45.72" ry="18"/>
<text text-anchor="middle" x="439.85" y="-140.8" font-family="Times,serif" font-size="9.00">pick0 banana</text>
</g>
<!-- Sequence &#160;&#160;&#45;&gt;pick0 banana -->
<g id="edge14" class="edge">
<title>Sequence &#160;&#160;&#45;&gt;pick0 banana</title>
<path fill="none" stroke="black" d="M433.08,-196.7C434.07,-188.98 435.26,-179.71 436.37,-171.11"/>
<polygon fill="black" stroke="black" points="439.85,-171.47 437.65,-161.1 432.91,-170.58 439.85,-171.47"/>
</g>
<!-- gripper_state open -->
<g id="node13" class="node">
<title>gripper_state open</title>
<ellipse fill="lightgray" stroke="black" cx="330.85" cy="-71" rx="60.09" ry="18"/>
<text text-anchor="middle" x="330.85" y="-68.8" font-family="Times,serif" font-size="9.00">gripper_state open</text>
</g>
<!-- Fallback &#160;&#160;&#45;&gt;gripper_state open -->
<g id="edge12" class="edge">
<title>Fallback &#160;&#160;&#45;&gt;gripper_state open</title>
<path fill="none" stroke="black" d="M334.62,-124.7C334.06,-116.98 333.4,-107.71 332.79,-99.11"/>
<polygon fill="black" stroke="black" points="336.28,-98.83 332.07,-89.1 329.29,-99.33 336.28,-98.83"/>
</g>
<!-- open_gripper -->
<g id="node14" class="node">
<title>open_gripper</title>
<ellipse fill="lightgray" stroke="black" cx="454.85" cy="-71" rx="45.72" ry="18"/>
<text text-anchor="middle" x="454.85" y="-68.8" font-family="Times,serif" font-size="9.00">open_gripper</text>
</g>
<!-- Fallback &#160;&#160;&#45;&gt;open_gripper -->
<g id="edge13" class="edge">
<title>Fallback &#160;&#160;&#45;&gt;open_gripper</title>
<path fill="none" stroke="black" d="M359.65,-128C377.41,-117.55 401.91,-103.14 421.61,-91.55"/>
<polygon fill="black" stroke="black" points="423.43,-94.54 430.28,-86.45 419.88,-88.51 423.43,-94.54"/>
</g>
<!-- pick0 banana&#45;&gt;/scene_clear -->
<g id="edge18" class="edge">
<title>pick0 banana&#45;&gt;/scene_clear</title>
<path fill="none" stroke="blue" d="M467.98,-128.81C483.39,-119.93 501.1,-106.61 509.85,-89 516.97,-74.67 520.59,-64.86 509.85,-53 503.51,-45.99 244.21,-23.65 128.56,-14"/>
<polygon fill="blue" stroke="blue" points="128.75,-10.51 118.49,-13.16 128.17,-17.48 128.75,-10.51"/>
</g>
<!-- pick0 banana&#45;&gt;/target -->
<g id="edge25" class="edge">
<title>pick0 banana&#45;&gt;/target</title>
<path fill="none" stroke="blue" d="M478.17,-133.04C501.25,-125.45 528.82,-112 542.85,-89 551.18,-75.34 553.42,-65.01 542.85,-53 522.92,-30.37 321.92,-16.36 238.18,-11.46"/>
<polygon fill="blue" stroke="blue" points="238.28,-7.96 228.1,-10.88 237.88,-14.95 238.28,-7.96"/>
</g>
<!-- place0 banana 0.023 0.003 0.056 0.071 bowl&#45;&gt;/scene_clear -->
<g id="edge19" class="edge">
<title>place0 banana 0.023 0.003 0.056 0.071 bowl&#45;&gt;/scene_clear</title>
<path fill="none" stroke="blue" d="M532.71,-268.94C548.59,-226.32 582.48,-114.23 526.85,-53 523.53,-49.34 248.45,-24.81 128.62,-14.28"/>
<polygon fill="blue" stroke="blue" points="128.82,-10.79 118.55,-13.4 128.21,-17.76 128.82,-10.79"/>
</g>
<!-- place0 banana 0.023 0.003 0.056 0.071 bowl&#45;&gt;/target -->
<g id="edge24" class="edge">
<title>place0 banana 0.023 0.003 0.056 0.071 bowl&#45;&gt;/target</title>
<path fill="none" stroke="blue" d="M543.47,-268.93C584.42,-227.24 678.18,-118.84 618.85,-53 593.55,-24.92 334.78,-13.77 238.06,-10.56"/>
<polygon fill="blue" stroke="blue" points="238,-7.06 227.89,-10.23 237.77,-14.05 238,-7.06"/>
</g>
<!-- /target&#45;&gt;disambiguate -->
<g id="edge23" class="edge">
<title>/target&#45;&gt;disambiguate</title>
<path fill="none" stroke="green" d="M199.29,-17.23C185,-60.49 115.51,-272.93 105.85,-341 103.6,-356.84 96.26,-364.2 105.85,-377 140.01,-422.58 174.31,-396.59 228.85,-413 232.36,-414.06 235.99,-415.16 239.64,-416.27"/>
<polygon fill="green" stroke="green" points="238.67,-419.63 249.25,-419.22 240.72,-412.94 238.67,-419.63"/>
</g>
</g>
</svg>
