<?xml version="1.0" encoding="UTF-8" standalone="no"?>
<!DOCTYPE svg PUBLIC "-//W3C//DTD SVG 1.1//EN"
 "http://www.w3.org/Graphics/SVG/1.1/DTD/svg11.dtd">
<!-- Generated by graphviz version 2.43.0 (0)
 -->
<!-- Title: BT Pages: 1 -->
<svg width="821pt" height="534pt"
 viewBox="0.00 0.00 820.84 534.00" xmlns="http://www.w3.org/2000/svg" xmlns:xlink="http://www.w3.org/1999/xlink">
<g id="graph0" class="graph" transform="scale(1 1) rotate(0) translate(4 530)">
<title>BT</title>
<polygon fill="white" stroke="transparent" points="-4,4 -4,-530 816.84,-530 816.84,4 -4,4"/>
<!-- n1 -->
<g id="node1" class="node">
<title>n1</title>
<polygon fill="none" stroke="black" points="370.99,-526 341.99,-526 341.99,-497 370.99,-497 370.99,-526"/>
<text text-anchor="middle" x="356.49" y="-507.8" font-family="Times,serif" font-size="14.00">→</text>
</g>
<!-- n2 -->
<g id="node2" class="node">
<title>n2</title>
<polygon fill="none" stroke="black" points="294.99,-461 265.99,-461 265.99,-432 294.99,-432 294.99,-461"/>
<text text-anchor="middle" x="280.49" y="-442.8" font-family="Times,serif" font-size="14.00">?</text>
</g>
<!-- n1&#45;&gt;n2 -->
<g id="edge3" class="edge">
<title>n1&#45;&gt;n2</title>
<path fill="none" stroke="black" d="M341.84,-498.35C330.8,-489.2 315.47,-476.49 302.89,-466.07"/>
<polygon fill="black" stroke="black" points="305.03,-463.3 295.1,-459.61 300.57,-468.69 305.03,-463.3"/>
</g>
<!-- n5 -->
<g id="node5" class="node">
<title>n5</title>
<polygon fill="none" stroke="black" points="506.99,-461 477.99,-461 477.99,-432 506.99,-432 506.99,-461"/>
<text text-anchor="middle" x="492.49" y="-442.8" font-family="Times,serif" font-size="14.00">→</text>
</g>
<!-- n1&#45;&gt;n5 -->
<g id="edge17" class="edge">
<title>n1&#45;&gt;n5</title>
<path fill="none" stroke="black" d="M371.05,-503.76C394.34,-492.97 440.24,-471.71 468.45,-458.64"/>
<polygon fill="black" stroke="black" points="470.03,-461.76 477.63,-454.38 467.09,-455.41 470.03,-461.76"/>
</g>
<!-- n3 -->
<g id="node3" class="node">
<title>n3</title>
<ellipse fill="none" stroke="black" cx="71.49" cy="-378" rx="71.49" ry="18"/>
<text text-anchor="middle" x="71.49" y="-374.3" font-family="Times,serif" font-size="14.00">Scene Clear?</text>
</g>
<!-- n2&#45;&gt;n3 -->
<g id="edge1" class="edge">
<title>n2&#45;&gt;n3</title>
<path fill="none" stroke="black" d="M265.8,-440.82C236.74,-431.58 170.68,-410.56 123.67,-395.6"/>
<polygon fill="black" stroke="black" points="124.53,-392.2 113.94,-392.51 122.41,-398.87 124.53,-392.2"/>
</g>
<!-- n4 -->
<g id="node4" class="node">
<title>n4</title>
<ellipse fill="none" stroke="black" cx="280.49" cy="-378" rx="119.68" ry="18"/>
<text text-anchor="middle" x="280.49" y="-374.3" font-family="Times,serif" font-size="14.00">Disambiguate Behavior</text>
</g>
<!-- n2&#45;&gt;n4 -->
<g id="edge2" class="edge">
<title>n2&#45;&gt;n4</title>
<path fill="none" stroke="black" d="M280.49,-431.72C280.49,-424.36 280.49,-415.04 280.49,-406.29"/>
<polygon fill="black" stroke="black" points="283.99,-406.07 280.49,-396.07 276.99,-406.07 283.99,-406.07"/>
</g>
<!-- n6 -->
<g id="node6" class="node">
<title>n6</title>
<polygon fill="none" stroke="black" points="446.99,-392.5 417.99,-392.5 417.99,-363.5 446.99,-363.5 446.99,-392.5"/>
<text text-anchor="middle" x="432.49" y="-374.3" font-family="Times,serif" font-size="14.00">?</text>
</g>
<!-- n5&#45;&gt;n6 -->
<g id="edge14" class="edge">
<title>n5&#45;&gt;n6</title>
<path fill="none" stroke="black" d="M480.06,-431.72C471.86,-422.63 460.94,-410.53 451.64,-400.22"/>
<polygon fill="black" stroke="black" points="454.21,-397.84 444.91,-392.76 449.01,-402.53 454.21,-397.84"/>
</g>
<!-- n17 -->
<g id="node17" class="node">
<title>n17</title>
<ellipse fill="none" stroke="black" cx="552.49" cy="-378" rx="87.99" ry="18"/>
<text text-anchor="middle" x="552.49" y="-374.3" font-family="Times,serif" font-size="14.00">In gripper none?</text>
</g>
<!-- n5&#45;&gt;n17 -->
<g id="edge15" class="edge">
<title>n5&#45;&gt;n17</title>
<path fill="none" stroke="black" d="M504.93,-431.72C512.22,-423.64 521.65,-413.18 530.19,-403.72"/>
<polygon fill="black" stroke="black" points="532.99,-405.84 537.09,-396.07 527.79,-401.15 532.99,-405.84"/>
</g>
<!-- n18 -->
<g id="node18" class="node">
<title>n18</title>
<ellipse fill="none" stroke="black" cx="735.49" cy="-378" rx="77.19" ry="18"/>
<text text-anchor="middle" x="735.49" y="-374.3" font-family="Times,serif" font-size="14.00">Gripper open?</text>
</g>
<!-- n5&#45;&gt;n18 -->
<g id="edge16" class="edge">
<title>n5&#45;&gt;n18</title>
<path fill="none" stroke="black" d="M507.33,-441.44C540.38,-432.4 621.56,-410.18 677.6,-394.84"/>
<polygon fill="black" stroke="black" points="678.69,-398.17 687.41,-392.16 676.84,-391.42 678.69,-398.17"/>
</g>
<!-- n7 -->
<g id="node7" class="node">
<title>n7</title>
<ellipse fill="none" stroke="black" cx="340.49" cy="-306" rx="151.37" ry="18"/>
<text text-anchor="middle" x="340.49" y="-302.3" font-family="Times,serif" font-size="14.00">banana roughly at p1 in bowl?</text>
</g>
<!-- n6&#45;&gt;n7 -->
<g id="edge4" class="edge">
<title>n6&#45;&gt;n7</title>
<path fill="none" stroke="black" d="M417.71,-365.75C405.2,-356.23 386.85,-342.27 371.17,-330.34"/>
<polygon fill="black" stroke="black" points="372.87,-327.24 362.8,-323.97 368.64,-332.81 372.87,-327.24"/>
</g>
<!-- n8 -->
<g id="node8" class="node">
<title>n8</title>
<polygon fill="none" stroke="black" points="538.99,-320.5 509.99,-320.5 509.99,-291.5 538.99,-291.5 538.99,-320.5"/>
<text text-anchor="middle" x="524.49" y="-302.3" font-family="Times,serif" font-size="14.00">→</text>
</g>
<!-- n6&#45;&gt;n8 -->
<g id="edge13" class="edge">
<title>n6&#45;&gt;n8</title>
<path fill="none" stroke="black" d="M447.28,-365.75C461.89,-354.63 484.48,-337.44 501.46,-324.53"/>
<polygon fill="black" stroke="black" points="503.91,-327.06 509.75,-318.22 499.67,-321.49 503.91,-327.06"/>
</g>
<!-- n9 -->
<g id="node9" class="node">
<title>n9</title>
<polygon fill="none" stroke="black" points="469.99,-248.5 440.99,-248.5 440.99,-219.5 469.99,-219.5 469.99,-248.5"/>
<text text-anchor="middle" x="455.49" y="-230.3" font-family="Times,serif" font-size="14.00">?</text>
</g>
<!-- n8&#45;&gt;n9 -->
<g id="edge11" class="edge">
<title>n8&#45;&gt;n9</title>
<path fill="none" stroke="black" d="M510.86,-291.17C501.03,-281.2 487.59,-267.56 476.4,-256.21"/>
<polygon fill="black" stroke="black" points="478.61,-253.47 469.1,-248.8 473.62,-258.38 478.61,-253.47"/>
</g>
<!-- n16 -->
<g id="node16" class="node">
<title>n16</title>
<polygon fill="none" stroke="black" points="696.99,-252 487.99,-252 487.99,-216 696.99,-216 696.99,-252"/>
<text text-anchor="middle" x="592.49" y="-230.3" font-family="Times,serif" font-size="14.00">Place banana at p1 in bowl</text>
</g>
<!-- n8&#45;&gt;n16 -->
<g id="edge12" class="edge">
<title>n8&#45;&gt;n16</title>
<path fill="none" stroke="black" d="M537.93,-291.17C546.71,-282.13 558.43,-270.07 568.75,-259.44"/>
<polygon fill="black" stroke="black" points="571.5,-261.63 575.96,-252.02 566.48,-256.75 571.5,-261.63"/>
</g>
<!-- n10 -->
<g id="node10" class="node">
<title>n10</title>
<ellipse fill="none" stroke="black" cx="390.49" cy="-162" rx="98.58" ry="18"/>
<text text-anchor="middle" x="390.49" y="-158.3" font-family="Times,serif" font-size="14.00">In gripper banana?</text>
</g>
<!-- n9&#45;&gt;n10 -->
<g id="edge5" class="edge">
<title>n9&#45;&gt;n10</title>
<path fill="none" stroke="black" d="M442.65,-219.17C434.26,-210.13 423.06,-198.07 413.19,-187.44"/>
<polygon fill="black" stroke="black" points="415.67,-184.97 406.3,-180.02 410.54,-189.73 415.67,-184.97"/>
</g>
<!-- n11 -->
<g id="node11" class="node">
<title>n11</title>
<polygon fill="none" stroke="black" points="535.99,-176.5 506.99,-176.5 506.99,-147.5 535.99,-147.5 535.99,-176.5"/>
<text text-anchor="middle" x="521.49" y="-158.3" font-family="Times,serif" font-size="14.00">→</text>
</g>
<!-- n9&#45;&gt;n11 -->
<g id="edge10" class="edge">
<title>n9&#45;&gt;n11</title>
<path fill="none" stroke="black" d="M468.53,-219.17C477.93,-209.2 490.8,-195.56 501.49,-184.21"/>
<polygon fill="black" stroke="black" points="504.17,-186.48 508.48,-176.8 499.07,-181.68 504.17,-186.48"/>
</g>
<!-- n12 -->
<g id="node12" class="node">
<title>n12</title>
<polygon fill="none" stroke="black" points="493.99,-104.5 464.99,-104.5 464.99,-75.5 493.99,-75.5 493.99,-104.5"/>
<text text-anchor="middle" x="479.49" y="-86.3" font-family="Times,serif" font-size="14.00">?</text>
</g>
<!-- n11&#45;&gt;n12 -->
<g id="edge8" class="edge">
<title>n11&#45;&gt;n12</title>
<path fill="none" stroke="black" d="M513.2,-147.17C507.44,-137.58 499.65,-124.6 493.01,-113.53"/>
<polygon fill="black" stroke="black" points="495.92,-111.58 487.77,-104.8 489.92,-115.18 495.92,-111.58"/>
</g>
<!-- n15 -->
<g id="node15" class="node">
<title>n15</title>
<polygon fill="none" stroke="black" points="614.99,-108 511.99,-108 511.99,-72 614.99,-72 614.99,-108"/>
<text text-anchor="middle" x="563.49" y="-86.3" font-family="Times,serif" font-size="14.00">Pick banana</text>
</g>
<!-- n11&#45;&gt;n15 -->
<g id="edge9" class="edge">
<title>n11&#45;&gt;n15</title>
<path fill="none" stroke="black" d="M529.79,-147.17C535.01,-138.48 541.89,-127 548.08,-116.68"/>
<polygon fill="black" stroke="black" points="551.14,-118.39 553.28,-108.02 545.14,-114.79 551.14,-118.39"/>
</g>
<!-- n13 -->
<g id="node13" class="node">
<title>n13</title>
<ellipse fill="none" stroke="black" cx="397.49" cy="-18" rx="77.19" ry="18"/>
<text text-anchor="middle" x="397.49" y="-14.3" font-family="Times,serif" font-size="14.00">Gripper open?</text>
</g>
<!-- n12&#45;&gt;n13 -->
<g id="edge6" class="edge">
<title>n12&#45;&gt;n13</title>
<path fill="none" stroke="black" d="M464.83,-76.49C453.77,-67.04 438.27,-53.81 424.93,-42.42"/>
<polygon fill="black" stroke="black" points="426.84,-39.45 416.96,-35.62 422.29,-44.77 426.84,-39.45"/>
</g>
<!-- n14 -->
<g id="node14" class="node">
<title>n14</title>
<polygon fill="none" stroke="black" points="629.99,-36 492.99,-36 492.99,0 629.99,0 629.99,-36"/>
<text text-anchor="middle" x="561.49" y="-14.3" font-family="Times,serif" font-size="14.00">Set gripper open</text>
</g>
<!-- n12&#45;&gt;n14 -->
<g id="edge7" class="edge">
<title>n12&#45;&gt;n14</title>
<path fill="none" stroke="black" d="M494.15,-76.49C505.06,-67.17 520.29,-54.17 533.5,-42.89"/>
<polygon fill="black" stroke="black" points="536.08,-45.29 541.42,-36.14 531.54,-39.97 536.08,-45.29"/>
</g>
</g>
</svg>
