<?xml version="1.0" encoding="UTF-8" standalone="no"?>
<!DOCTYPE svg PUBLIC "-//W3C//DTD SVG 1.1//EN"
 "http://www.w3.org/Graphics/SVG/1.1/DTD/svg11.dtd">
<!-- Generated by graphviz version 2.43.0 (0)
 -->
<!-- Title: pastafarianism Pages: 1 -->
<svg width="597pt" height="548pt"
 viewBox="0.00 0.00 597.11 548.00" xmlns="http://www.w3.org/2000/svg" xmlns:xlink="http://www.w3.org/1999/xlink">
<g id="graph0" class="graph" transform="scale(1 1) rotate(0) translate(4 544)">
<title>pastafarianism</title>
<polygon fill="white" stroke="transparent" points="-4,4 -4,-544 593.11,-544 593.11,4 -4,4"/>
<!-- Sequence -->
<g id="node1" class="node">
<title>Sequence</title>
<polygon fill="orange" stroke="black" points="273.46,-540 211.46,-540 211.46,-504 273.46,-504 273.46,-540"/>
<text text-anchor="middle" x="242.46" y="-519.8" font-family="Times,serif" font-size="9.00">Sequence</text>
</g>
<!-- Fallback -->
<g id="node2" class="node">
<title>Fallback</title>
<polygon fill="cyan" stroke="black" points="214.45,-442.54 214.45,-457.46 193.95,-468 164.96,-468 144.46,-457.46 144.46,-442.54 164.96,-432 193.95,-432 214.45,-442.54"/>
<text text-anchor="middle" x="179.46" y="-447.8" font-family="Times,serif" font-size="9.00">Fallback</text>
</g>
<!-- Sequence&#45;&gt;Fallback -->
<g id="edge1" class="edge">
<title>Sequence&#45;&gt;Fallback</title>
<path fill="none" stroke="black" d="M226.88,-503.7C219.25,-495.22 209.93,-484.86 201.58,-475.58"/>
<polygon fill="black" stroke="black" points="204.14,-473.2 194.85,-468.1 198.94,-477.88 204.14,-473.2"/>
</g>
<!-- Sequence  -->
<g id="node5" class="node">
<title>Sequence </title>
<polygon fill="orange" stroke="black" points="393.96,-468 328.96,-468 328.96,-432 393.96,-432 393.96,-468"/>
<text text-anchor="middle" x="361.46" y="-447.8" font-family="Times,serif" font-size="9.00">Sequence </text>
</g>
<!-- Sequence&#45;&gt;Sequence  -->
<g id="edge4" class="edge">
<title>Sequence&#45;&gt;Sequence </title>
<path fill="none" stroke="black" d="M271.57,-503.88C287.13,-494.72 306.48,-483.34 323.23,-473.48"/>
<polygon fill="black" stroke="black" points="325.39,-476.28 332.23,-468.19 321.84,-470.24 325.39,-476.28"/>
</g>
<!-- Scene Clear? -->
<g id="node3" class="node">
<title>Scene Clear?</title>
<ellipse fill="lightgray" stroke="black" cx="44.46" cy="-378" rx="44.41" ry="18"/>
<text text-anchor="middle" x="44.46" y="-375.8" font-family="Times,serif" font-size="9.00">Scene Clear?</text>
</g>
<!-- Fallback&#45;&gt;Scene Clear? -->
<g id="edge2" class="edge">
<title>Fallback&#45;&gt;Scene Clear?</title>
<path fill="none" stroke="black" d="M155.63,-436.65C134.65,-425.77 103.8,-409.77 79.92,-397.39"/>
<polygon fill="black" stroke="black" points="81.3,-394.16 70.81,-392.67 78.08,-400.38 81.3,-394.16"/>
</g>
<!-- Disambiguate Behavior -->
<g id="node4" class="node">
<title>Disambiguate Behavior</title>
<ellipse fill="lightgray" stroke="black" cx="179.46" cy="-378" rx="72.34" ry="18"/>
<text text-anchor="middle" x="179.46" y="-375.8" font-family="Times,serif" font-size="9.00">Disambiguate Behavior</text>
</g>
<!-- Fallback&#45;&gt;Disambiguate Behavior -->
<g id="edge3" class="edge">
<title>Fallback&#45;&gt;Disambiguate Behavior</title>
<path fill="none" stroke="black" d="M179.46,-431.7C179.46,-423.98 179.46,-414.71 179.46,-406.11"/>
<polygon fill="black" stroke="black" points="182.96,-406.1 179.46,-396.1 175.96,-406.1 182.96,-406.1"/>
</g>
<!-- Fallback  -->
<g id="node6" class="node">
<title>Fallback </title>
<polygon fill="cyan" stroke="black" points="343.2,-370.54 343.2,-385.46 321.67,-396 291.24,-396 269.72,-385.46 269.72,-370.54 291.24,-360 321.67,-360 343.2,-370.54"/>
<text text-anchor="middle" x="306.46" y="-375.8" font-family="Times,serif" font-size="9.00">Fallback </text>
</g>
<!-- Sequence &#45;&gt;Fallback  -->
<g id="edge5" class="edge">
<title>Sequence &#45;&gt;Fallback </title>
<path fill="none" stroke="black" d="M347.86,-431.7C341.33,-423.39 333.39,-413.28 326.21,-404.14"/>
<polygon fill="black" stroke="black" points="328.83,-401.81 319.9,-396.1 323.32,-406.13 328.83,-401.81"/>
</g>
<!-- In gripper none? -->
<g id="node17" class="node">
<title>In gripper none?</title>
<ellipse fill="lightgray" stroke="black" cx="416.46" cy="-378" rx="54.7" ry="18"/>
<text text-anchor="middle" x="416.46" y="-375.8" font-family="Times,serif" font-size="9.00">In gripper none?</text>
</g>
<!-- Sequence &#45;&gt;In gripper none? -->
<g id="edge16" class="edge">
<title>Sequence &#45;&gt;In gripper none?</title>
<path fill="none" stroke="black" d="M375.05,-431.7C381.68,-423.27 389.76,-412.97 397.02,-403.73"/>
<polygon fill="black" stroke="black" points="399.97,-405.65 403.4,-395.62 394.47,-401.32 399.97,-405.65"/>
</g>
<!-- Gripper open?  -->
<g id="node18" class="node">
<title>Gripper open? </title>
<ellipse fill="lightgray" stroke="black" cx="539.46" cy="-378" rx="49.8" ry="18"/>
<text text-anchor="middle" x="539.46" y="-375.8" font-family="Times,serif" font-size="9.00">Gripper open? </text>
</g>
<!-- Sequence &#45;&gt;Gripper open?  -->
<g id="edge17" class="edge">
<title>Sequence &#45;&gt;Gripper open? </title>
<path fill="none" stroke="black" d="M394.1,-436.16C423.21,-424.71 465.98,-407.9 497.59,-395.46"/>
<polygon fill="black" stroke="black" points="498.99,-398.67 507.02,-391.76 496.43,-392.16 498.99,-398.67"/>
</g>
<!-- banana roughly at p1 in bowl? -->
<g id="node7" class="node">
<title>banana roughly at p1 in bowl?</title>
<ellipse fill="lightgray" stroke="black" cx="234.46" cy="-306" rx="91.44" ry="18"/>
<text text-anchor="middle" x="234.46" y="-303.8" font-family="Times,serif" font-size="9.00">banana roughly at p1 in bowl?</text>
</g>
<!-- Fallback &#45;&gt;banana roughly at p1 in bowl? -->
<g id="edge6" class="edge">
<title>Fallback &#45;&gt;banana roughly at p1 in bowl?</title>
<path fill="none" stroke="black" d="M289.39,-360.41C280.38,-351.65 269.15,-340.73 259.2,-331.06"/>
<polygon fill="black" stroke="black" points="261.51,-328.42 251.9,-323.96 256.63,-333.44 261.51,-328.42"/>
</g>
<!-- Sequence &#160; -->
<g id="node8" class="node">
<title>Sequence &#160;</title>
<polygon fill="orange" stroke="black" points="411.46,-324 343.46,-324 343.46,-288 411.46,-288 411.46,-324"/>
<text text-anchor="middle" x="377.46" y="-303.8" font-family="Times,serif" font-size="9.00">Sequence &#160;</text>
</g>
<!-- Fallback &#45;&gt;Sequence &#160; -->
<g id="edge7" class="edge">
<title>Fallback &#45;&gt;Sequence &#160;</title>
<path fill="none" stroke="black" d="M323.28,-360.41C332.1,-351.71 343.08,-340.89 352.84,-331.27"/>
<polygon fill="black" stroke="black" points="355.35,-333.71 360.01,-324.2 350.43,-328.73 355.35,-333.71"/>
</g>
<!-- Fallback &#160; -->
<g id="node9" class="node">
<title>Fallback &#160;</title>
<polygon fill="cyan" stroke="black" points="346.45,-226.54 346.45,-241.46 323.61,-252 291.31,-252 268.46,-241.46 268.46,-226.54 291.31,-216 323.61,-216 346.45,-226.54"/>
<text text-anchor="middle" x="307.46" y="-231.8" font-family="Times,serif" font-size="9.00">Fallback &#160;</text>
</g>
<!-- Sequence &#160;&#45;&gt;Fallback &#160; -->
<g id="edge8" class="edge">
<title>Sequence &#160;&#45;&gt;Fallback &#160;</title>
<path fill="none" stroke="black" d="M360.15,-287.7C351.59,-279.14 341.11,-268.66 331.76,-259.3"/>
<polygon fill="black" stroke="black" points="334.11,-256.7 324.56,-252.1 329.16,-261.65 334.11,-256.7"/>
</g>
<!-- Place banana at p1 in bowl -->
<g id="node16" class="node">
<title>Place banana at p1 in bowl</title>
<ellipse fill="lightgray" stroke="black" cx="446.46" cy="-234" rx="81.97" ry="18"/>
<text text-anchor="middle" x="446.46" y="-231.8" font-family="Times,serif" font-size="9.00">Place banana at p1 in bowl</text>
</g>
<!-- Sequence &#160;&#45;&gt;Place banana at p1 in bowl -->
<g id="edge15" class="edge">
<title>Sequence &#160;&#45;&gt;Place banana at p1 in bowl</title>
<path fill="none" stroke="black" d="M394.51,-287.7C402.95,-279.14 413.28,-268.66 422.5,-259.3"/>
<polygon fill="black" stroke="black" points="425.07,-261.68 429.6,-252.1 420.08,-256.77 425.07,-261.68"/>
</g>
<!-- In gripper banana? -->
<g id="node10" class="node">
<title>In gripper banana?</title>
<ellipse fill="lightgray" stroke="black" cx="250.46" cy="-162" rx="61.4" ry="18"/>
<text text-anchor="middle" x="250.46" y="-159.8" font-family="Times,serif" font-size="9.00">In gripper banana?</text>
</g>
<!-- Fallback &#160;&#45;&gt;In gripper banana? -->
<g id="edge9" class="edge">
<title>Fallback &#160;&#45;&gt;In gripper banana?</title>
<path fill="none" stroke="black" d="M293.37,-215.7C286.43,-207.18 277.95,-196.76 270.36,-187.45"/>
<polygon fill="black" stroke="black" points="273.02,-185.17 263.99,-179.62 267.59,-189.59 273.02,-185.17"/>
</g>
<!-- Sequence &#160;&#160; -->
<g id="node11" class="node">
<title>Sequence &#160;&#160;</title>
<polygon fill="orange" stroke="black" points="400.96,-180 329.96,-180 329.96,-144 400.96,-144 400.96,-180"/>
<text text-anchor="middle" x="365.46" y="-159.8" font-family="Times,serif" font-size="9.00">Sequence &#160;&#160;</text>
</g>
<!-- Fallback &#160;&#45;&gt;Sequence &#160;&#160; -->
<g id="edge10" class="edge">
<title>Fallback &#160;&#45;&gt;Sequence &#160;&#160;</title>
<path fill="none" stroke="black" d="M321.79,-215.7C328.75,-207.3 337.23,-197.07 344.86,-187.86"/>
<polygon fill="black" stroke="black" points="347.6,-190.04 351.28,-180.1 342.21,-185.57 347.6,-190.04"/>
</g>
<!-- Fallback &#160;&#160; -->
<g id="node12" class="node">
<title>Fallback &#160;&#160;</title>
<polygon fill="cyan" stroke="black" points="355.2,-82.54 355.2,-97.46 331.33,-108 297.58,-108 273.72,-97.46 273.72,-82.54 297.58,-72 331.33,-72 355.2,-82.54"/>
<text text-anchor="middle" x="314.46" y="-87.8" font-family="Times,serif" font-size="9.00">Fallback &#160;&#160;</text>
</g>
<!-- Sequence &#160;&#160;&#45;&gt;Fallback &#160;&#160; -->
<g id="edge11" class="edge">
<title>Sequence &#160;&#160;&#45;&gt;Fallback &#160;&#160;</title>
<path fill="none" stroke="black" d="M352.85,-143.7C346.86,-135.47 339.58,-125.48 332.98,-116.42"/>
<polygon fill="black" stroke="black" points="335.64,-114.13 326.92,-108.1 329.98,-118.25 335.64,-114.13"/>
</g>
<!-- Pick banana -->
<g id="node15" class="node">
<title>Pick banana</title>
<ellipse fill="lightgray" stroke="black" cx="415.46" cy="-90" rx="42.29" ry="18"/>
<text text-anchor="middle" x="415.46" y="-87.8" font-family="Times,serif" font-size="9.00">Pick banana</text>
</g>
<!-- Sequence &#160;&#160;&#45;&gt;Pick banana -->
<g id="edge14" class="edge">
<title>Sequence &#160;&#160;&#45;&gt;Pick banana</title>
<path fill="none" stroke="black" d="M377.82,-143.7C383.78,-135.35 391.04,-125.18 397.59,-116.02"/>
<polygon fill="black" stroke="black" points="400.62,-117.79 403.58,-107.62 394.92,-113.73 400.62,-117.79"/>
</g>
<!-- Gripper open? -->
<g id="node13" class="node">
<title>Gripper open?</title>
<ellipse fill="lightgray" stroke="black" cx="254.46" cy="-18" rx="47.84" ry="18"/>
<text text-anchor="middle" x="254.46" y="-15.8" font-family="Times,serif" font-size="9.00">Gripper open?</text>
</g>
<!-- Fallback &#160;&#160;&#45;&gt;Gripper open? -->
<g id="edge12" class="edge">
<title>Fallback &#160;&#160;&#45;&gt;Gripper open?</title>
<path fill="none" stroke="black" d="M299.62,-71.7C292.32,-63.18 283.4,-52.76 275.41,-43.45"/>
<polygon fill="black" stroke="black" points="277.87,-40.94 268.7,-35.62 272.55,-45.49 277.87,-40.94"/>
</g>
<!-- Set gripper open -->
<g id="node14" class="node">
<title>Set gripper open</title>
<ellipse fill="lightgray" stroke="black" cx="375.46" cy="-18" rx="54.7" ry="18"/>
<text text-anchor="middle" x="375.46" y="-15.8" font-family="Times,serif" font-size="9.00">Set gripper open</text>
</g>
<!-- Fallback &#160;&#160;&#45;&gt;Set gripper open -->
<g id="edge13" class="edge">
<title>Fallback &#160;&#160;&#45;&gt;Set gripper open</title>
<path fill="none" stroke="black" d="M329.53,-71.7C337.03,-63.09 346.22,-52.55 354.4,-43.17"/>
<polygon fill="black" stroke="black" points="357.04,-45.46 360.97,-35.62 351.76,-40.86 357.04,-45.46"/>
</g>
</g>
</svg>
