<?xml version="1.0" encoding="UTF-8" standalone="no"?>
<!DOCTYPE svg PUBLIC "-//W3C//DTD SVG 1.1//EN"
 "http://www.w3.org/Graphics/SVG/1.1/DTD/svg11.dtd">
<!-- Generated by graphviz version 2.43.0 (0)
 -->
<!-- Title: pastafarianism Pages: 1 -->
<svg width="1214pt" height="601pt"
 viewBox="0.00 0.00 1213.86 601.00" xmlns="http://www.w3.org/2000/svg" xmlns:xlink="http://www.w3.org/1999/xlink">
<g id="graph0" class="graph" transform="scale(1 1) rotate(0) translate(4 597)">
<title>pastafarianism</title>
<polygon fill="white" stroke="transparent" points="-4,4 -4,-597 1209.86,-597 1209.86,4 -4,4"/>
<!-- Sequence -->
<g id="node1" class="node">
<title>Sequence</title>
<polygon fill="orange" stroke="black" points="541.77,-593 479.77,-593 479.77,-557 541.77,-557 541.77,-593"/>
<text text-anchor="middle" x="510.77" y="-572.8" font-family="Times,serif" font-size="9.00">Sequence</text>
</g>
<!-- Fallback -->
<g id="node2" class="node">
<title>Fallback</title>
<polygon fill="cyan" stroke="black" points="495.76,-495.54 495.76,-510.46 475.26,-521 446.27,-521 425.78,-510.46 425.78,-495.54 446.27,-485 475.26,-485 495.76,-495.54"/>
<text text-anchor="middle" x="460.77" y="-500.8" font-family="Times,serif" font-size="9.00">Fallback</text>
</g>
<!-- Sequence&#45;&gt;Fallback -->
<g id="edge1" class="edge">
<title>Sequence&#45;&gt;Fallback</title>
<path fill="none" stroke="black" d="M498.41,-556.7C492.53,-548.47 485.4,-538.48 478.92,-529.42"/>
<polygon fill="black" stroke="black" points="481.64,-527.21 472.98,-521.1 475.95,-531.28 481.64,-527.21"/>
</g>
<!-- Sequence  -->
<g id="node5" class="node">
<title>Sequence </title>
<polygon fill="orange" stroke="black" points="646.27,-521 581.27,-521 581.27,-485 646.27,-485 646.27,-521"/>
<text text-anchor="middle" x="613.77" y="-500.8" font-family="Times,serif" font-size="9.00">Sequence </text>
</g>
<!-- Sequence&#45;&gt;Sequence  -->
<g id="edge4" class="edge">
<title>Sequence&#45;&gt;Sequence </title>
<path fill="none" stroke="black" d="M535.96,-556.88C549.18,-547.89 565.56,-536.76 579.87,-527.03"/>
<polygon fill="black" stroke="black" points="582.17,-529.71 588.47,-521.19 578.24,-523.92 582.17,-529.71"/>
</g>
<!-- clear -->
<g id="node3" class="node">
<title>clear</title>
<ellipse fill="lightgray" stroke="black" cx="369.77" cy="-431" rx="27" ry="18"/>
<text text-anchor="middle" x="369.77" y="-428.8" font-family="Times,serif" font-size="9.00">clear</text>
</g>
<!-- Fallback&#45;&gt;clear -->
<g id="edge2" class="edge">
<title>Fallback&#45;&gt;clear</title>
<path fill="none" stroke="black" d="M441.47,-487.15C427.95,-476.75 409.75,-462.75 395.07,-451.46"/>
<polygon fill="black" stroke="black" points="396.95,-448.49 386.89,-445.17 392.68,-454.04 396.95,-448.49"/>
</g>
<!-- disambiguate -->
<g id="node4" class="node">
<title>disambiguate</title>
<ellipse fill="lightgray" stroke="black" cx="460.77" cy="-431" rx="45.72" ry="18"/>
<text text-anchor="middle" x="460.77" y="-428.8" font-family="Times,serif" font-size="9.00">disambiguate</text>
</g>
<!-- Fallback&#45;&gt;disambiguate -->
<g id="edge3" class="edge">
<title>Fallback&#45;&gt;disambiguate</title>
<path fill="none" stroke="black" d="M460.77,-484.7C460.77,-476.98 460.77,-467.71 460.77,-459.11"/>
<polygon fill="black" stroke="black" points="464.27,-459.1 460.77,-449.1 457.27,-459.1 464.27,-459.1"/>
</g>
<!-- /scene_clear -->
<g id="node20" class="node">
<title>/scene_clear</title>
<polygon fill="white" stroke="blue" points="316.27,-17 227.27,-17 227.27,0 316.27,0 316.27,-17"/>
<text text-anchor="middle" x="271.77" y="-6.6" font-family="Times,serif" font-size="8.00" fill="blue">/scene_clear: True</text>
</g>
<!-- clear&#45;&gt;/scene_clear -->
<g id="edge25" class="edge">
<title>clear&#45;&gt;/scene_clear</title>
<path fill="none" stroke="blue" d="M342.84,-428.84C272.8,-425.34 87.02,-412.81 38.77,-377 10.2,-355.79 11.75,-339.67 3.77,-305 -28.72,-163.86 170.68,-56.13 244.82,-21.4"/>
<polygon fill="blue" stroke="blue" points="246.39,-24.53 254.01,-17.17 243.47,-18.17 246.39,-24.53"/>
</g>
<!-- disambiguate&#45;&gt;/scene_clear -->
<g id="edge23" class="edge">
<title>disambiguate&#45;&gt;/scene_clear</title>
<path fill="none" stroke="blue" d="M427.59,-418.58C420.46,-416.46 412.92,-414.45 405.77,-413 327.62,-397.15 102.25,-436.14 48.77,-377 -6.57,-315.8 200.02,-86.18 257.38,-24.72"/>
<polygon fill="blue" stroke="blue" points="260.15,-26.88 264.44,-17.19 255.04,-22.09 260.15,-26.88"/>
</g>
<!-- Fallback  -->
<g id="node6" class="node">
<title>Fallback </title>
<polygon fill="cyan" stroke="black" points="597.51,-423.54 597.51,-438.46 575.99,-449 545.55,-449 524.03,-438.46 524.03,-423.54 545.55,-413 575.99,-413 597.51,-423.54"/>
<text text-anchor="middle" x="560.77" y="-428.8" font-family="Times,serif" font-size="9.00">Fallback </text>
</g>
<!-- Sequence &#45;&gt;Fallback  -->
<g id="edge5" class="edge">
<title>Sequence &#45;&gt;Fallback </title>
<path fill="none" stroke="black" d="M600.67,-484.7C594.38,-476.39 586.72,-466.28 579.8,-457.14"/>
<polygon fill="black" stroke="black" points="582.54,-454.96 573.72,-449.1 576.96,-459.19 582.54,-454.96"/>
</g>
<!-- in_gripper none -->
<g id="node17" class="node">
<title>in_gripper none</title>
<ellipse fill="lightgray" stroke="black" cx="667.77" cy="-431" rx="52.58" ry="18"/>
<text text-anchor="middle" x="667.77" y="-428.8" font-family="Times,serif" font-size="9.00">in_gripper none</text>
</g>
<!-- Sequence &#45;&gt;in_gripper none -->
<g id="edge16" class="edge">
<title>Sequence &#45;&gt;in_gripper none</title>
<path fill="none" stroke="black" d="M627.12,-484.7C633.62,-476.27 641.56,-465.97 648.69,-456.73"/>
<polygon fill="black" stroke="black" points="651.61,-458.68 654.94,-448.62 646.06,-454.4 651.61,-458.68"/>
</g>
<!-- gripper_state open  -->
<g id="node18" class="node">
<title>gripper_state open </title>
<ellipse fill="lightgray" stroke="black" cx="799.77" cy="-431" rx="61.55" ry="18"/>
<text text-anchor="middle" x="799.77" y="-428.8" font-family="Times,serif" font-size="9.00">gripper_state open </text>
</g>
<!-- Sequence &#45;&gt;gripper_state open  -->
<g id="edge17" class="edge">
<title>Sequence &#45;&gt;gripper_state open </title>
<path fill="none" stroke="black" d="M646.59,-489.65C676.4,-478.43 720.65,-461.77 753.94,-449.25"/>
<polygon fill="black" stroke="black" points="755.33,-452.46 763.45,-445.67 752.86,-445.91 755.33,-452.46"/>
</g>
<!-- object_roughly_at banana 0.023000000000000003 0.0030000000000000005 0.056 0.07083784299369934 bowl -->
<g id="node7" class="node">
<title>object_roughly_at banana 0.023000000000000003 0.0030000000000000005 0.056 0.07083784299369934 bowl</title>
<ellipse fill="lightgray" stroke="black" cx="375.77" cy="-359" rx="318.24" ry="18"/>
<text text-anchor="middle" x="375.77" y="-356.8" font-family="Times,serif" font-size="9.00">object_roughly_at banana 0.023000000000000003 0.0030000000000000005 0.056 0.07083784299369934 bowl</text>
</g>
<!-- Fallback &#45;&gt;object_roughly_at banana 0.023000000000000003 0.0030000000000000005 0.056 0.07083784299369934 bowl -->
<g id="edge6" class="edge">
<title>Fallback &#45;&gt;object_roughly_at banana 0.023000000000000003 0.0030000000000000005 0.056 0.07083784299369934 bowl</title>
<path fill="none" stroke="black" d="M532.27,-419.22C505.14,-408.95 463.63,-393.24 430.17,-380.58"/>
<polygon fill="black" stroke="black" points="431.11,-377.2 420.52,-376.93 428.63,-383.74 431.11,-377.2"/>
</g>
<!-- Sequence &#160; -->
<g id="node8" class="node">
<title>Sequence &#160;</title>
<polygon fill="orange" stroke="black" points="779.77,-377 711.77,-377 711.77,-341 779.77,-341 779.77,-377"/>
<text text-anchor="middle" x="745.77" y="-356.8" font-family="Times,serif" font-size="9.00">Sequence &#160;</text>
</g>
<!-- Fallback &#45;&gt;Sequence &#160; -->
<g id="edge7" class="edge">
<title>Fallback &#45;&gt;Sequence &#160;</title>
<path fill="none" stroke="black" d="M589.32,-419.18C594.78,-417.12 600.45,-414.99 605.77,-413 646.06,-397.91 658.28,-393.95 702.02,-377.25"/>
<polygon fill="black" stroke="black" points="703.44,-380.46 711.52,-373.61 700.93,-373.92 703.44,-380.46"/>
</g>
<!-- /target -->
<g id="node19" class="node">
<title>/target</title>
<polygon fill="white" stroke="blue" points="408.77,-17 356.77,-17 356.77,0 408.77,0 408.77,-17"/>
<text text-anchor="middle" x="382.77" y="-6.6" font-family="Times,serif" font-size="8.00" fill="blue">/target: &#45;</text>
</g>
<!-- object_roughly_at banana 0.023000000000000003 0.0030000000000000005 0.056 0.07083784299369934 bowl&#45;&gt;/target -->
<g id="edge21" class="edge">
<title>object_roughly_at banana 0.023000000000000003 0.0030000000000000005 0.056 0.07083784299369934 bowl&#45;&gt;/target</title>
<path fill="none" stroke="blue" d="M325.14,-341.09C308.66,-332.9 292.2,-321.23 282.77,-305 274.73,-291.17 277.53,-284.12 282.77,-269 292.76,-240.14 356.36,-189.33 367.77,-161 386.07,-115.53 385.73,-56.44 384.15,-27.32"/>
<polygon fill="blue" stroke="blue" points="387.62,-26.85 383.47,-17.1 380.64,-27.31 387.62,-26.85"/>
</g>
<!-- object_roughly_at banana 0.023000000000000003 0.0030000000000000005 0.056 0.07083784299369934 bowl&#45;&gt;/scene_clear -->
<g id="edge26" class="edge">
<title>object_roughly_at banana 0.023000000000000003 0.0030000000000000005 0.056 0.07083784299369934 bowl&#45;&gt;/scene_clear</title>
<path fill="none" stroke="blue" d="M377.46,-341C381.47,-292.25 387.3,-149.31 329.77,-53 321.95,-39.91 308.54,-29.47 296.59,-22.1"/>
<polygon fill="blue" stroke="blue" points="298.26,-19.03 287.85,-17.07 294.77,-25.09 298.26,-19.03"/>
</g>
<!-- Fallback &#160; -->
<g id="node9" class="node">
<title>Fallback &#160;</title>
<polygon fill="cyan" stroke="black" points="611.76,-279.54 611.76,-294.46 588.92,-305 556.62,-305 533.78,-294.46 533.78,-279.54 556.62,-269 588.92,-269 611.76,-279.54"/>
<text text-anchor="middle" x="572.77" y="-284.8" font-family="Times,serif" font-size="9.00">Fallback &#160;</text>
</g>
<!-- Sequence &#160;&#45;&gt;Fallback &#160; -->
<g id="edge8" class="edge">
<title>Sequence &#160;&#45;&gt;Fallback &#160;</title>
<path fill="none" stroke="black" d="M711.59,-344.17C682.44,-332.38 640.61,-315.45 610.49,-303.26"/>
<polygon fill="black" stroke="black" points="611.74,-299.99 601.15,-299.49 609.11,-306.48 611.74,-299.99"/>
</g>
<!-- place4 banana 0.023000000000000003 0.0030000000000000005 0.056 0.07083784299369934 bowl -->
<g id="node16" class="node">
<title>place4 banana 0.023000000000000003 0.0030000000000000005 0.056 0.07083784299369934 bowl</title>
<ellipse fill="lightgray" stroke="black" cx="917.77" cy="-287" rx="288.2" ry="18"/>
<text text-anchor="middle" x="917.77" y="-284.8" font-family="Times,serif" font-size="9.00">place4 banana 0.023000000000000003 0.0030000000000000005 0.056 0.07083784299369934 bowl</text>
</g>
<!-- Sequence &#160;&#45;&gt;place4 banana 0.023000000000000003 0.0030000000000000005 0.056 0.07083784299369934 bowl -->
<g id="edge15" class="edge">
<title>Sequence &#160;&#45;&gt;place4 banana 0.023000000000000003 0.0030000000000000005 0.056 0.07083784299369934 bowl</title>
<path fill="none" stroke="black" d="M780.16,-344C804.89,-333.94 838.66,-320.2 866.55,-308.84"/>
<polygon fill="black" stroke="black" points="868.2,-311.95 876.15,-304.94 865.56,-305.47 868.2,-311.95"/>
</g>
<!-- in_gripper banana -->
<g id="node10" class="node">
<title>in_gripper banana</title>
<ellipse fill="lightgray" stroke="black" cx="516.77" cy="-215" rx="58.78" ry="18"/>
<text text-anchor="middle" x="516.77" y="-212.8" font-family="Times,serif" font-size="9.00">in_gripper banana</text>
</g>
<!-- Fallback &#160;&#45;&gt;in_gripper banana -->
<g id="edge9" class="edge">
<title>Fallback &#160;&#45;&gt;in_gripper banana</title>
<path fill="none" stroke="black" d="M558.92,-268.7C552.11,-260.18 543.78,-249.76 536.33,-240.45"/>
<polygon fill="black" stroke="black" points="539.04,-238.24 530.06,-232.62 533.58,-242.62 539.04,-238.24"/>
</g>
<!-- Sequence &#160;&#160; -->
<g id="node11" class="node">
<title>Sequence &#160;&#160;</title>
<polygon fill="orange" stroke="black" points="664.27,-233 593.27,-233 593.27,-197 664.27,-197 664.27,-233"/>
<text text-anchor="middle" x="628.77" y="-212.8" font-family="Times,serif" font-size="9.00">Sequence &#160;&#160;</text>
</g>
<!-- Fallback &#160;&#45;&gt;Sequence &#160;&#160; -->
<g id="edge10" class="edge">
<title>Fallback &#160;&#45;&gt;Sequence &#160;&#160;</title>
<path fill="none" stroke="black" d="M586.61,-268.7C593.26,-260.39 601.35,-250.28 608.65,-241.14"/>
<polygon fill="black" stroke="black" points="611.57,-243.1 615.08,-233.1 606.1,-238.73 611.57,-243.1"/>
</g>
<!-- Fallback &#160;&#160; -->
<g id="node12" class="node">
<title>Fallback &#160;&#160;</title>
<polygon fill="cyan" stroke="black" points="601.51,-135.54 601.51,-150.46 577.64,-161 543.89,-161 520.03,-150.46 520.03,-135.54 543.89,-125 577.64,-125 601.51,-135.54"/>
<text text-anchor="middle" x="560.77" y="-140.8" font-family="Times,serif" font-size="9.00">Fallback &#160;&#160;</text>
</g>
<!-- Sequence &#160;&#160;&#45;&gt;Fallback &#160;&#160; -->
<g id="edge11" class="edge">
<title>Sequence &#160;&#160;&#45;&gt;Fallback &#160;&#160;</title>
<path fill="none" stroke="black" d="M611.96,-196.7C603.64,-188.14 593.46,-177.66 584.38,-168.3"/>
<polygon fill="black" stroke="black" points="586.86,-165.84 577.38,-161.1 581.84,-170.72 586.86,-165.84"/>
</g>
<!-- pick4 banana -->
<g id="node15" class="node">
<title>pick4 banana</title>
<ellipse fill="lightgray" stroke="black" cx="664.77" cy="-143" rx="45.72" ry="18"/>
<text text-anchor="middle" x="664.77" y="-140.8" font-family="Times,serif" font-size="9.00">pick4 banana</text>
</g>
<!-- Sequence &#160;&#160;&#45;&gt;pick4 banana -->
<g id="edge14" class="edge">
<title>Sequence &#160;&#160;&#45;&gt;pick4 banana</title>
<path fill="none" stroke="black" d="M637.67,-196.7C641.76,-188.73 646.72,-179.1 651.26,-170.26"/>
<polygon fill="black" stroke="black" points="654.51,-171.6 655.97,-161.1 648.28,-168.4 654.51,-171.6"/>
</g>
<!-- gripper_state open -->
<g id="node13" class="node">
<title>gripper_state open</title>
<ellipse fill="lightgray" stroke="black" cx="538.77" cy="-71" rx="60.09" ry="18"/>
<text text-anchor="middle" x="538.77" y="-68.8" font-family="Times,serif" font-size="9.00">gripper_state open</text>
</g>
<!-- Fallback &#160;&#160;&#45;&gt;gripper_state open -->
<g id="edge12" class="edge">
<title>Fallback &#160;&#160;&#45;&gt;gripper_state open</title>
<path fill="none" stroke="black" d="M555.33,-124.7C552.88,-116.9 549.93,-107.51 547.2,-98.83"/>
<polygon fill="black" stroke="black" points="550.48,-97.59 544.14,-89.1 543.8,-99.69 550.48,-97.59"/>
</g>
<!-- open_gripper -->
<g id="node14" class="node">
<title>open_gripper</title>
<ellipse fill="lightgray" stroke="black" cx="662.77" cy="-71" rx="45.72" ry="18"/>
<text text-anchor="middle" x="662.77" y="-68.8" font-family="Times,serif" font-size="9.00">open_gripper</text>
</g>
<!-- Fallback &#160;&#160;&#45;&gt;open_gripper -->
<g id="edge13" class="edge">
<title>Fallback &#160;&#160;&#45;&gt;open_gripper</title>
<path fill="none" stroke="black" d="M582.65,-126.98C597.17,-117.02 616.43,-103.8 632.42,-92.83"/>
<polygon fill="black" stroke="black" points="634.66,-95.54 640.92,-86.99 630.7,-89.76 634.66,-95.54"/>
</g>
<!-- pick4 banana&#45;&gt;/target -->
<g id="edge19" class="edge">
<title>pick4 banana&#45;&gt;/target</title>
<path fill="none" stroke="blue" d="M685.13,-126.72C707.6,-108.05 738.06,-76.1 717.77,-53 698.25,-30.79 501.61,-16.58 419,-11.55"/>
<polygon fill="blue" stroke="blue" points="419.01,-8.04 408.82,-10.94 418.6,-15.03 419.01,-8.04"/>
</g>
<!-- pick4 banana&#45;&gt;/scene_clear -->
<g id="edge22" class="edge">
<title>pick4 banana&#45;&gt;/scene_clear</title>
<path fill="none" stroke="blue" d="M685.25,-126.61C707.84,-107.83 738.43,-75.77 717.77,-53 690.01,-22.41 388.88,-21.03 347.77,-17 340.94,-16.33 333.77,-15.63 326.67,-14.93"/>
<polygon fill="blue" stroke="blue" points="326.67,-11.41 316.37,-13.91 325.98,-18.38 326.67,-11.41"/>
</g>
<!-- place4 banana 0.023000000000000003 0.0030000000000000005 0.056 0.07083784299369934 bowl&#45;&gt;/target -->
<g id="edge20" class="edge">
<title>place4 banana 0.023000000000000003 0.0030000000000000005 0.056 0.07083784299369934 bowl&#45;&gt;/target</title>
<path fill="none" stroke="blue" d="M880.37,-268.93C863.71,-259.98 844.73,-247.79 830.77,-233 768.52,-167.08 809.5,-104.34 734.77,-53 684.07,-18.17 498.13,-11.21 418.9,-9.83"/>
<polygon fill="blue" stroke="blue" points="418.95,-6.33 408.9,-9.68 418.85,-13.33 418.95,-6.33"/>
</g>
<!-- place4 banana 0.023000000000000003 0.0030000000000000005 0.056 0.07083784299369934 bowl&#45;&gt;/scene_clear -->
<g id="edge24" class="edge">
<title>place4 banana 0.023000000000000003 0.0030000000000000005 0.056 0.07083784299369934 bowl&#45;&gt;/scene_clear</title>
<path fill="none" stroke="blue" d="M910.35,-268.93C889.91,-224.26 828.04,-103.82 734.77,-53 658.92,-11.68 433.74,-25.24 347.77,-17 340.94,-16.35 333.77,-15.65 326.67,-14.95"/>
<polygon fill="blue" stroke="blue" points="326.66,-11.44 316.37,-13.94 325.98,-18.4 326.66,-11.44"/>
</g>
<!-- /target&#45;&gt;disambiguate -->
<g id="edge18" class="edge">
<title>/target&#45;&gt;disambiguate</title>
<path fill="none" stroke="green" d="M380.73,-17.23C374.17,-40.97 351.65,-114.08 311.77,-161 220.04,-268.93 114.84,-215.71 48.77,-341 41.3,-355.15 38.04,-365.13 48.77,-377 102.25,-436.14 327.62,-397.15 405.77,-413 409.68,-413.79 413.71,-414.75 417.72,-415.81"/>
<polygon fill="green" stroke="green" points="417.02,-419.25 427.59,-418.58 418.91,-412.51 417.02,-419.25"/>
</g>
</g>
</svg>
